<?xml version="1.0" encoding="us-ascii" standalone="no"?><svg xmlns="http://www.w3.org/2000/svg" xmlns:xlink="http://www.w3.org/1999/xlink" contentStyleType="text/css" height="1778.125px" preserveAspectRatio="none" style="width:2001px;height:1778px;background:#FFFFFF;" version="1.1" viewBox="0 0 2001 1778" width="2001.5625px" zoomAndPan="magnify"><defs/><g><text fill="#000000" font-family="sans-serif" font-size="21.875" font-weight="bold" lengthAdjust="spacing" textLength="559.375" x="718.75" y="53.9581">Chatbot Consultorio M&#233;dico - Flujo para Backoffice</text><text fill="#000000" font-family="sans-serif" font-size="18.75" font-weight="bold" lengthAdjust="spacing" textLength="545.3125" x="725.7813" y="78.2288">Gesti&#243;n de pagos, citas, sesiones y consultas administrativas</text><ellipse cx="1307.4219" cy="115.1611" fill="#222222" rx="15.625" ry="15.625" style="stroke:#222222;stroke-width:1.5625;"/><rect fill="#FFFFFF" height="54.834" rx="19.5313" ry="19.5313" style="stroke:#1A73E8;stroke-width:0.78125;" width="268.75" x="1173.0469" y="162.0361"/><text fill="#000000" font-family="sans-serif" font-size="18.75" lengthAdjust="spacing" textLength="237.5" x="1188.6719" y="197.1252">Usuario inicia conversaci&#243;n</text><rect fill="#FFFFFF" height="54.834" rx="19.5313" ry="19.5313" style="stroke:#1A73E8;stroke-width:0.78125;" width="217.1875" x="1198.8281" y="248.1201"/><text fill="#000000" font-family="sans-serif" font-size="18.75" lengthAdjust="spacing" textLength="185.9375" x="1214.4531" y="283.2092">Solicitar identificaci&#243;n</text><rect fill="#FFFFFF" height="54.834" rx="19.5313" ry="19.5313" style="stroke:#1A73E8;stroke-width:0.78125;" width="228.125" x="1193.3594" y="334.2041"/><text fill="#000000" font-family="sans-serif" font-size="18.75" lengthAdjust="spacing" textLength="196.875" x="1208.9844" y="369.2932">Verificar rol del usuario</text><polygon fill="#E3F2FD" points="1246.4844,420.2881,1368.3594,420.2881,1387.1094,439.0381,1368.3594,457.7881,1246.4844,457.7881,1227.7344,439.0381,1246.4844,420.2881" style="stroke:#1A73E8;stroke-width:0.78125;"/><text fill="#000000" font-family="sans-serif" font-size="17.1875" lengthAdjust="spacing" textLength="121.875" x="1246.4844" y="446.0709">&#191;Es backoffice?</text><text fill="#000000" font-family="sans-serif" font-size="17.1875" lengthAdjust="spacing" textLength="14.0625" x="1213.6719" y="435.2615">S&#237;</text><text fill="#000000" font-family="sans-serif" font-size="17.1875" lengthAdjust="spacing" textLength="20.3125" x="1387.1094" y="435.2615">No</text><rect fill="#FFFFFF" height="78.418" rx="19.5313" ry="19.5313" style="stroke:#1A73E8;stroke-width:0.78125;" width="404.6875" x="596.875" y="473.4131"/><text fill="#000000" font-family="sans-serif" font-size="18.75" lengthAdjust="spacing" textLength="243.75" x="612.5" y="508.5022">Mostrar men&#250; administrativo</text><text fill="#000000" font-family="sans-serif" font-size="18.75" lengthAdjust="spacing" textLength="373.4375" x="612.5" y="532.0862">(Validar pagos / Citas / Sesiones / Historial)</text><polygon fill="#E3F2FD" points="135.1563,645.5811,285.1563,645.5811,303.9063,664.3311,285.1563,683.0811,135.1563,683.0811,116.4063,664.3311,135.1563,645.5811" style="stroke:#1A73E8;stroke-width:0.78125;"/><text fill="#000000" font-family="sans-serif" font-size="17.1875" lengthAdjust="spacing" textLength="104.6875" x="216.4063" y="700.9232">Validar pagos</text><text fill="#000000" font-family="sans-serif" font-size="17.1875" lengthAdjust="spacing" textLength="150" x="135.1563" y="671.3638">&#191;Qu&#233; desea hacer?</text><rect fill="#FFFFFF" height="54.834" rx="19.5313" ry="19.5313" style="stroke:#1A73E8;stroke-width:0.78125;" width="287.5" x="66.4063" y="734.5169"/><text fill="#000000" font-family="sans-serif" font-size="18.75" lengthAdjust="spacing" textLength="256.25" x="82.0313" y="769.606">Ver lista de pagos pendientes</text><rect fill="#FFFFFF" height="54.834" rx="19.5313" ry="19.5313" style="stroke:#1A73E8;stroke-width:0.78125;" width="251.5625" x="84.375" y="820.6009"/><text fill="#000000" font-family="sans-serif" font-size="18.75" lengthAdjust="spacing" textLength="220.3125" x="100" y="855.69">Seleccionar comprobante</text><rect fill="#FFFFFF" height="54.834" rx="19.5313" ry="19.5313" style="stroke:#1A73E8;stroke-width:0.78125;" width="328.125" x="46.0938" y="906.6849"/><text fill="#000000" font-family="sans-serif" font-size="18.75" lengthAdjust="spacing" textLength="296.875" x="61.7188" y="941.774">Revisar referencia, valor y paciente</text><rect fill="#FFFFFF" height="54.834" rx="19.5313" ry="19.5313" style="stroke:#1A73E8;stroke-width:0.78125;" width="385.9375" x="17.1875" y="992.7689"/><text fill="#000000" font-family="sans-serif" font-size="18.75" lengthAdjust="spacing" textLength="354.6875" x="32.8125" y="1027.858">Marcar como APROBADO o RECHAZADO</text><rect fill="#FFFFFF" height="54.834" rx="19.5313" ry="19.5313" style="stroke:#1A73E8;stroke-width:0.78125;" width="298.4375" x="60.9375" y="1078.8528"/><text fill="#000000" font-family="sans-serif" font-size="18.75" lengthAdjust="spacing" textLength="267.1875" x="76.5625" y="1113.942">Actualizar estado de pago y cita</text><rect fill="#FFFFFF" height="54.834" rx="19.5313" ry="19.5313" style="stroke:#1A73E8;stroke-width:0.78125;" width="187.5" x="116.4063" y="1164.9368"/><text fill="#000000" font-family="sans-serif" font-size="18.75" lengthAdjust="spacing" textLength="156.25" x="132.0313" y="1200.0259">Notificar resultado</text><polygon fill="#E3F2FD" points="519.5313,645.5811,669.5313,645.5811,688.2813,664.3311,669.5313,683.0811,519.5313,683.0811,500.7813,664.3311,519.5313,645.5811" style="stroke:#1A73E8;stroke-width:0.78125;"/><text fill="#000000" font-family="sans-serif" font-size="17.1875" lengthAdjust="spacing" textLength="37.5" x="600.7813" y="700.9232">Citas</text><text fill="#000000" font-family="sans-serif" font-size="17.1875" lengthAdjust="spacing" textLength="150" x="519.5313" y="671.3638">&#191;Qu&#233; desea hacer?</text><rect fill="#FFFFFF" height="54.834" rx="19.5313" ry="19.5313" style="stroke:#1A73E8;stroke-width:0.78125;" width="170.3125" x="509.375" y="734.5169"/><text fill="#000000" font-family="sans-serif" font-size="18.75" lengthAdjust="spacing" textLength="139.0625" x="525" y="769.606">Buscar paciente</text><rect fill="#FFFFFF" height="54.834" rx="19.5313" ry="19.5313" style="stroke:#1A73E8;stroke-width:0.78125;" width="245.3125" x="471.875" y="820.6009"/><text fill="#000000" font-family="sans-serif" font-size="18.75" lengthAdjust="spacing" textLength="214.0625" x="487.5" y="855.69">Consultar citas pr&#243;ximas</text><rect fill="#FFFFFF" height="54.834" rx="19.5313" ry="19.5313" style="stroke:#1A73E8;stroke-width:0.78125;" width="351.5625" x="418.75" y="906.6849"/><text fill="#000000" font-family="sans-serif" font-size="18.75" lengthAdjust="spacing" textLength="320.3125" x="434.375" y="941.774">Confirmar o reagendar manualmente</text><rect fill="#FFFFFF" height="54.834" rx="19.5313" ry="19.5313" style="stroke:#1A73E8;stroke-width:0.78125;" width="289.0625" x="450" y="992.7689"/><text fill="#000000" font-family="sans-serif" font-size="18.75" lengthAdjust="spacing" textLength="257.8125" x="465.625" y="1027.858">Actualizar agenda del sistema</text><polygon fill="#E3F2FD" points="882.8125,645.5811,1032.8125,645.5811,1051.5625,664.3311,1032.8125,683.0811,882.8125,683.0811,864.0625,664.3311,882.8125,645.5811" style="stroke:#1A73E8;stroke-width:0.78125;"/><text fill="#000000" font-family="sans-serif" font-size="17.1875" lengthAdjust="spacing" textLength="70.3125" x="964.0625" y="700.9232">Sesiones</text><text fill="#000000" font-family="sans-serif" font-size="17.1875" lengthAdjust="spacing" textLength="150" x="882.8125" y="671.3638">&#191;Qu&#233; desea hacer?</text><rect fill="#FFFFFF" height="54.834" rx="19.5313" ry="19.5313" style="stroke:#1A73E8;stroke-width:0.78125;" width="170.3125" x="872.6563" y="734.5169"/><text fill="#000000" font-family="sans-serif" font-size="18.75" lengthAdjust="spacing" textLength="139.0625" x="888.2813" y="769.606">Buscar paciente</text><rect fill="#FFFFFF" height="54.834" rx="19.5313" ry="19.5313" style="stroke:#1A73E8;stroke-width:0.78125;" width="209.375" x="853.125" y="820.6009"/><text fill="#000000" font-family="sans-serif" font-size="18.75" lengthAdjust="spacing" textLength="178.125" x="868.75" y="855.69">Ver sesiones activas</text><rect fill="#FFFFFF" height="54.834" rx="19.5313" ry="19.5313" style="stroke:#1A73E8;stroke-width:0.78125;" width="234.375" x="840.625" y="906.6849"/><text fill="#000000" font-family="sans-serif" font-size="18.75" lengthAdjust="spacing" textLength="203.125" x="856.25" y="941.774">Redimir sesi&#243;n manual</text><rect fill="#FFFFFF" height="54.834" rx="19.5313" ry="19.5313" style="stroke:#1A73E8;stroke-width:0.78125;" width="312.5" x="801.5625" y="992.7689"/><text fill="#000000" font-family="sans-serif" font-size="18.75" lengthAdjust="spacing" textLength="281.25" x="817.1875" y="1027.858">Actualizar contador y vencimiento</text><polygon fill="#E3F2FD" points="1241.4063,645.5811,1391.4063,645.5811,1410.1563,664.3311,1391.4063,683.0811,1241.4063,683.0811,1222.6563,664.3311,1241.4063,645.5811" style="stroke:#1A73E8;stroke-width:0.78125;"/><text fill="#000000" font-family="sans-serif" font-size="17.1875" lengthAdjust="spacing" textLength="59.375" x="1322.6563" y="700.9232">Historial</text><text fill="#000000" font-family="sans-serif" font-size="17.1875" lengthAdjust="spacing" textLength="150" x="1241.4063" y="671.3638">&#191;Qu&#233; desea hacer?</text><rect fill="#FFFFFF" height="54.834" rx="19.5313" ry="19.5313" style="stroke:#1A73E8;stroke-width:0.78125;" width="170.3125" x="1231.25" y="734.5169"/><text fill="#000000" font-family="sans-serif" font-size="18.75" lengthAdjust="spacing" textLength="139.0625" x="1246.875" y="769.606">Buscar paciente</text><rect fill="#FFFFFF" height="54.834" rx="19.5313" ry="19.5313" style="stroke:#1A73E8;stroke-width:0.78125;" width="373.4375" x="1129.6875" y="820.6009"/><text fill="#000000" font-family="sans-serif" font-size="18.75" lengthAdjust="spacing" textLength="342.1875" x="1145.3125" y="855.69">Consultar historial de sesiones y pagos</text><rect fill="#FFFFFF" height="54.834" rx="19.5313" ry="19.5313" style="stroke:#1A73E8;stroke-width:0.78125;" width="276.5625" x="660.9375" y="1282.2708"/><text fill="#000000" font-family="sans-serif" font-size="18.75" lengthAdjust="spacing" textLength="245.3125" x="676.5625" y="1317.3599">&#191;Desea realizar otra acci&#243;n?</text><polygon fill="#E3F2FD" points="780.4688,1368.3548,817.9688,1368.3548,836.7188,1387.1048,817.9688,1405.8548,780.4688,1405.8548,761.7188,1387.1048,780.4688,1368.3548" style="stroke:#1A73E8;stroke-width:0.78125;"/><text fill="#000000" font-family="sans-serif" font-size="17.1875" lengthAdjust="spacing" textLength="14.0625" x="792.1875" y="1394.1376">S&#237;</text><text fill="#000000" font-family="sans-serif" font-size="17.1875" lengthAdjust="spacing" textLength="14.0625" x="747.6563" y="1383.3282">S&#237;</text><text fill="#000000" font-family="sans-serif" font-size="17.1875" lengthAdjust="spacing" textLength="20.3125" x="836.7188" y="1383.3282">No</text><rect fill="#FFFFFF" height="54.834" rx="19.5313" ry="19.5313" style="stroke:#1A73E8;stroke-width:0.78125;" width="282.8125" x="533.9844" y="1421.4798"/><text fill="#000000" font-family="sans-serif" font-size="18.75" lengthAdjust="spacing" textLength="251.5625" x="549.6094" y="1456.5689">Volver al men&#250; administrativo</text><rect fill="#FFFFFF" height="54.834" rx="19.5313" ry="19.5313" style="stroke:#1A73E8;stroke-width:0.78125;" width="150" x="848.0469" y="1421.4798"/><text fill="#000000" font-family="sans-serif" font-size="18.75" lengthAdjust="spacing" textLength="118.75" x="863.6719" y="1456.5689">Cerrar sesi&#243;n</text><ellipse cx="923.0469" cy="1524.7513" fill="none" rx="17.1875" ry="17.1875" style="stroke:#222222;stroke-width:1.5625;"/><ellipse cx="923.0469" cy="1524.7513" fill="#222222" rx="9.375" ry="9.375" style="stroke:#222222;stroke-width:1.5625;"/><rect fill="#FFFFFF" height="54.834" rx="19.5313" ry="19.5313" style="stroke:#1A73E8;stroke-width:0.78125;" width="437.5" x="1546.875" y="473.4131"/><text fill="#000000" font-family="sans-serif" font-size="18.75" lengthAdjust="spacing" textLength="406.25" x="1562.5" y="508.5022">Redirigir al flujo de paciente (ver otro diagrama)</text><ellipse cx="1765.625" cy="600.1221" fill="none" rx="17.1875" ry="17.1875" style="stroke:#222222;stroke-width:1.5625;"/><ellipse cx="1765.625" cy="600.1221" fill="#222222" rx="9.375" ry="9.375" style="stroke:#222222;stroke-width:1.5625;"/><line style="stroke:#181818;stroke-width:1.5625;" x1="1307.4219" x2="1307.4219" y1="130.7861" y2="162.0361"/><polygon fill="#181818" points="1301.1719,146.4111,1307.4219,162.0361,1313.6719,146.4111,1307.4219,152.6611" style="stroke:#181818;stroke-width:1.5625;"/><line style="stroke:#181818;stroke-width:1.5625;" x1="1307.4219" x2="1307.4219" y1="216.8701" y2="248.1201"/><polygon fill="#181818" points="1301.1719,232.4951,1307.4219,248.1201,1313.6719,232.4951,1307.4219,238.7451" style="stroke:#181818;stroke-width:1.5625;"/><line style="stroke:#181818;stroke-width:1.5625;" x1="1307.4219" x2="1307.4219" y1="302.9541" y2="334.2041"/><polygon fill="#181818" points="1301.1719,318.5791,1307.4219,334.2041,1313.6719,318.5791,1307.4219,324.8291" style="stroke:#181818;stroke-width:1.5625;"/><line style="stroke:#181818;stroke-width:1.5625;" x1="210.1563" x2="210.1563" y1="789.3509" y2="820.6009"/><polygon fill="#181818" points="203.9063,804.9759,210.1563,820.6009,216.4063,804.9759,210.1563,811.2259" style="stroke:#181818;stroke-width:1.5625;"/><line style="stroke:#181818;stroke-width:1.5625;" x1="210.1563" x2="210.1563" y1="875.4349" y2="906.6849"/><polygon fill="#181818" points="203.9063,891.0599,210.1563,906.6849,216.4063,891.0599,210.1563,897.3099" style="stroke:#181818;stroke-width:1.5625;"/><line style="stroke:#181818;stroke-width:1.5625;" x1="210.1563" x2="210.1563" y1="961.5189" y2="992.7689"/><polygon fill="#181818" points="203.9063,977.1439,210.1563,992.7689,216.4063,977.1439,210.1563,983.3939" style="stroke:#181818;stroke-width:1.5625;"/><line style="stroke:#181818;stroke-width:1.5625;" x1="210.1563" x2="210.1563" y1="1047.6028" y2="1078.8528"/><polygon fill="#181818" points="203.9063,1063.2278,210.1563,1078.8528,216.4063,1063.2278,210.1563,1069.4778" style="stroke:#181818;stroke-width:1.5625;"/><line style="stroke:#181818;stroke-width:1.5625;" x1="210.1563" x2="210.1563" y1="1133.6868" y2="1164.9368"/><polygon fill="#181818" points="203.9063,1149.3118,210.1563,1164.9368,216.4063,1149.3118,210.1563,1155.5618" style="stroke:#181818;stroke-width:1.5625;"/><line style="stroke:#181818;stroke-width:1.5625;" x1="594.5313" x2="594.5313" y1="789.3509" y2="820.6009"/><polygon fill="#181818" points="588.2813,804.9759,594.5313,820.6009,600.7813,804.9759,594.5313,811.2259" style="stroke:#181818;stroke-width:1.5625;"/><line style="stroke:#181818;stroke-width:1.5625;" x1="594.5313" x2="594.5313" y1="875.4349" y2="906.6849"/><polygon fill="#181818" points="588.2813,891.0599,594.5313,906.6849,600.7813,891.0599,594.5313,897.3099" style="stroke:#181818;stroke-width:1.5625;"/><line style="stroke:#181818;stroke-width:1.5625;" x1="594.5313" x2="594.5313" y1="961.5189" y2="992.7689"/><polygon fill="#181818" points="588.2813,977.1439,594.5313,992.7689,600.7813,977.1439,594.5313,983.3939" style="stroke:#181818;stroke-width:1.5625;"/><line style="stroke:#181818;stroke-width:1.5625;" x1="957.8125" x2="957.8125" y1="789.3509" y2="820.6009"/><polygon fill="#181818" points="951.5625,804.9759,957.8125,820.6009,964.0625,804.9759,957.8125,811.2259" style="stroke:#181818;stroke-width:1.5625;"/><line style="stroke:#181818;stroke-width:1.5625;" x1="957.8125" x2="957.8125" y1="875.4349" y2="906.6849"/><polygon fill="#181818" points="951.5625,891.0599,957.8125,906.6849,964.0625,891.0599,957.8125,897.3099" style="stroke:#181818;stroke-width:1.5625;"/><line style="stroke:#181818;stroke-width:1.5625;" x1="957.8125" x2="957.8125" y1="961.5189" y2="992.7689"/><polygon fill="#181818" points="951.5625,977.1439,957.8125,992.7689,964.0625,977.1439,957.8125,983.3939" style="stroke:#181818;stroke-width:1.5625;"/><line style="stroke:#181818;stroke-width:1.5625;" x1="1316.4063" x2="1316.4063" y1="789.3509" y2="820.6009"/><polygon fill="#181818" points="1310.1563,804.9759,1316.4063,820.6009,1322.6563,804.9759,1316.4063,811.2259" style="stroke:#181818;stroke-width:1.5625;"/><line style="stroke:#181818;stroke-width:1.5625;" x1="210.1563" x2="210.1563" y1="683.0811" y2="734.5169"/><polygon fill="#181818" points="203.9063,718.8919,210.1563,734.5169,216.4063,718.8919,210.1563,725.1419" style="stroke:#181818;stroke-width:1.5625;"/><line style="stroke:#181818;stroke-width:1.5625;" x1="210.1563" x2="210.1563" y1="1219.7708" y2="1251.0208"/><polygon fill="#181818" points="203.9063,1235.3958,210.1563,1251.0208,216.4063,1235.3958,210.1563,1241.6458" style="stroke:#181818;stroke-width:1.5625;"/><line style="stroke:#181818;stroke-width:1.5625;" x1="594.5313" x2="594.5313" y1="683.0811" y2="734.5169"/><polygon fill="#181818" points="588.2813,718.8919,594.5313,734.5169,600.7813,718.8919,594.5313,725.1419" style="stroke:#181818;stroke-width:1.5625;"/><line style="stroke:#181818;stroke-width:1.5625;" x1="594.5313" x2="594.5313" y1="1047.6028" y2="1251.0208"/><polygon fill="#181818" points="588.2813,1235.3958,594.5313,1251.0208,600.7813,1235.3958,594.5313,1241.6458" style="stroke:#181818;stroke-width:1.5625;"/><line style="stroke:#181818;stroke-width:1.5625;" x1="957.8125" x2="957.8125" y1="683.0811" y2="734.5169"/><polygon fill="#181818" points="951.5625,718.8919,957.8125,734.5169,964.0625,718.8919,957.8125,725.1419" style="stroke:#181818;stroke-width:1.5625;"/><line style="stroke:#181818;stroke-width:1.5625;" x1="957.8125" x2="957.8125" y1="1047.6028" y2="1251.0208"/><polygon fill="#181818" points="951.5625,1235.3958,957.8125,1251.0208,964.0625,1235.3958,957.8125,1241.6458" style="stroke:#181818;stroke-width:1.5625;"/><line style="stroke:#181818;stroke-width:1.5625;" x1="1316.4063" x2="1316.4063" y1="683.0811" y2="734.5169"/><polygon fill="#181818" points="1310.1563,718.8919,1316.4063,734.5169,1322.6563,718.8919,1316.4063,725.1419" style="stroke:#181818;stroke-width:1.5625;"/><line style="stroke:#181818;stroke-width:1.5625;" x1="1316.4063" x2="1316.4063" y1="875.4349" y2="1251.0208"/><polygon fill="#181818" points="1310.1563,1235.3958,1316.4063,1251.0208,1322.6563,1235.3958,1316.4063,1241.6458" style="stroke:#181818;stroke-width:1.5625;"/><line style="stroke:#181818;stroke-width:1.5625;" x1="303.9063" x2="500.7813" y1="664.3311" y2="664.3311"/><polygon fill="#181818" points="485.1563,658.0811,500.7813,664.3311,485.1563,670.5811,491.4063,664.3311" style="stroke:#181818;stroke-width:1.5625;"/><line style="stroke:#181818;stroke-width:1.5625;" x1="688.2813" x2="864.0625" y1="664.3311" y2="664.3311"/><polygon fill="#181818" points="848.4375,658.0811,864.0625,664.3311,848.4375,670.5811,854.6875,664.3311" style="stroke:#181818;stroke-width:1.5625;"/><line style="stroke:#181818;stroke-width:1.5625;" x1="1051.5625" x2="1222.6563" y1="664.3311" y2="664.3311"/><polygon fill="#181818" points="1207.0313,658.0811,1222.6563,664.3311,1207.0313,670.5811,1213.2813,664.3311" style="stroke:#181818;stroke-width:1.5625;"/><line style="stroke:#181818;stroke-width:1.5625;" x1="799.2188" x2="799.2188" y1="551.8311" y2="606.5186"/><line style="stroke:#181818;stroke-width:1.5625;" x1="799.2188" x2="210.1563" y1="606.5186" y2="606.5186"/><line style="stroke:#181818;stroke-width:1.5625;" x1="210.1563" x2="210.1563" y1="606.5186" y2="645.5811"/><polygon fill="#181818" points="203.9063,629.9561,210.1563,645.5811,216.4063,629.9561,210.1563,636.2061" style="stroke:#181818;stroke-width:1.5625;"/><line style="stroke:#181818;stroke-width:1.5625;" x1="1410.1563" x2="1525" y1="664.3311" y2="664.3311"/><line style="stroke:#181818;stroke-width:1.5625;" x1="1525" x2="1525" y1="664.3311" y2="1251.0208"/><polygon fill="#181818" points="1518.75,1235.3958,1525,1251.0208,1531.25,1235.3958,1525,1241.6458" style="stroke:#181818;stroke-width:1.5625;"/><line style="stroke:#181818;stroke-width:1.5625;" x1="210.1563" x2="1525" y1="1251.0208" y2="1251.0208"/><line style="stroke:#181818;stroke-width:1.5625;" x1="799.2188" x2="799.2188" y1="1251.0208" y2="1282.2708"/><polygon fill="#181818" points="792.9688,1266.6458,799.2188,1282.2708,805.4688,1266.6458,799.2188,1272.8958" style="stroke:#181818;stroke-width:1.5625;"/><line style="stroke:#181818;stroke-width:1.5625;" x1="675.3906" x2="675.3906" y1="1476.3138" y2="1507.5638"/><polygon fill="#181818" points="669.1406,1491.9388,675.3906,1507.5638,681.6406,1491.9388,675.3906,1498.1888" style="stroke:#181818;stroke-width:1.5625;"/><line style="stroke:#181818;stroke-width:1.5625;" x1="923.0469" x2="923.0469" y1="1476.3138" y2="1507.5638"/><polygon fill="#181818" points="916.7969,1491.9388,923.0469,1507.5638,929.2969,1491.9388,923.0469,1498.1888" style="stroke:#181818;stroke-width:1.5625;"/><line style="stroke:#181818;stroke-width:1.5625;" x1="761.7188" x2="675.3906" y1="1387.1048" y2="1387.1048"/><line style="stroke:#181818;stroke-width:1.5625;" x1="675.3906" x2="675.3906" y1="1387.1048" y2="1421.4798"/><polygon fill="#181818" points="669.1406,1405.8548,675.3906,1421.4798,681.6406,1405.8548,675.3906,1412.1048" style="stroke:#181818;stroke-width:1.5625;"/><line style="stroke:#181818;stroke-width:1.5625;" x1="836.7188" x2="923.0469" y1="1387.1048" y2="1387.1048"/><line style="stroke:#181818;stroke-width:1.5625;" x1="923.0469" x2="923.0469" y1="1387.1048" y2="1421.4798"/><polygon fill="#181818" points="916.7969,1405.8548,923.0469,1421.4798,929.2969,1405.8548,923.0469,1412.1048" style="stroke:#181818;stroke-width:1.5625;"/><line style="stroke:#181818;stroke-width:1.5625;" x1="799.2188" x2="799.2188" y1="1337.1048" y2="1368.3548"/><polygon fill="#181818" points="792.9688,1352.7298,799.2188,1368.3548,805.4688,1352.7298,799.2188,1358.9798" style="stroke:#181818;stroke-width:1.5625;"/><line style="stroke:#181818;stroke-width:1.5625;" x1="1765.625" x2="1765.625" y1="528.2471" y2="582.9346"/><polygon fill="#181818" points="1759.375,567.3096,1765.625,582.9346,1771.875,567.3096,1765.625,573.5596" style="stroke:#181818;stroke-width:1.5625;"/><line style="stroke:#181818;stroke-width:1.5625;" x1="1227.7344" x2="799.2188" y1="439.0381" y2="439.0381"/><line style="stroke:#181818;stroke-width:1.5625;" x1="799.2188" x2="799.2188" y1="439.0381" y2="473.4131"/><polygon fill="#181818" points="792.9688,457.7881,799.2188,473.4131,805.4688,457.7881,799.2188,464.0381" style="stroke:#181818;stroke-width:1.5625;"/><line style="stroke:#181818;stroke-width:1.5625;" x1="1387.1094" x2="1765.625" y1="439.0381" y2="439.0381"/><line style="stroke:#181818;stroke-width:1.5625;" x1="1765.625" x2="1765.625" y1="439.0381" y2="473.4131"/><polygon fill="#181818" points="1759.375,457.7881,1765.625,473.4131,1771.875,457.7881,1765.625,464.0381" style="stroke:#181818;stroke-width:1.5625;"/><line style="stroke:#181818;stroke-width:1.5625;" x1="1307.4219" x2="1307.4219" y1="389.0381" y2="420.2881"/><polygon fill="#181818" points="1301.1719,404.6631,1307.4219,420.2881,1313.6719,404.6631,1307.4219,410.9131" style="stroke:#181818;stroke-width:1.5625;"/><rect fill="#DDDDDD" height="180.7129" id="_legend" rx="11.7188" ry="11.7188" style="stroke:#000000;stroke-width:1.5625;" width="545.3125" x="1417.1875" y="1559.1263"/><text fill="#000000" font-family="sans-serif" font-size="21.875" lengthAdjust="spacing" textLength="529.6875" x="1425" y="1589.6469">Este flujo aplica solo para usuarios con rol backoffice.</text><text fill="#000000" font-family="sans-serif" font-size="21.875" lengthAdjust="spacing" textLength="109.375" x="1425" y="1617.1616">Funciones:</text><text fill="#000000" font-family="sans-serif" font-size="21.875" lengthAdjust="spacing" textLength="312.5" x="1425" y="1644.6762">- Validaci&#243;n y registro de pagos</text><text fill="#000000" font-family="sans-serif" font-size="21.875" lengthAdjust="spacing" textLength="276.5625" x="1425" y="1672.1909">- Revisi&#243;n y gesti&#243;n de citas</text><text fill="#000000" font-family="sans-serif" font-size="21.875" lengthAdjust="spacing" textLength="335.9375" x="1425" y="1699.7055">- Redenci&#243;n y control de sesiones</text><text fill="#000000" font-family="sans-serif" font-size="21.875" lengthAdjust="spacing" textLength="426.5625" x="1425" y="1727.2202">- Consulta de historial cl&#237;nico-administrativo</text><!--SRC=[ZLHDJnin4BtxLupKIv2W553LAg6Wa8_s0hI9og7gnNYzYSkk9xAzKQ7g3-B0YLilIEIFTSRUR1A1Md99CZD-y-RDXxyoTYQTB26R6TXx-qRunY9LC7CJhk6N03YHwchYiB9P3mjqy6eOFz7ZQjDUzzt1u3sP-aQMQBCdRmO7m_rXVoq0NQQVl7xE-bk8O4AXHMygmoK6wA7rLH7G6OJJnMrc5C8E38lg1mBJZuGnputIuZ176y2R6_rXR__ee_R1BEujP9eY9-YtGPaWwSjhRz1g3zUW4hpq8BFIMEE3awI6z8Ux37OajCqWCH8-I1T4-wkl9BEXQ6Ka8yoryr9nheveZx4mdCU1oRGDXfWrlWljudy73WlYLK2Lm3f2c1nQZmy33vTDGSTR4ARQGckykDiYmTgdoFmSbDek_cmonk-sTI4Bav4xLWkxqEDowNkyh7SNFb4yQIcBBKe9a99-gHQtnCPh2LEfj6loRW0o0-90DK11ABBH5MOaag5QjU-acB4kj5AKazugB6SEBoMvQ-z8purd3NIkdROauZRC9K_1DG6gY5I7dagd4WP2z_Fe_AJRFmU4qQ3tgVkDVjTXNHKgedf3eTHqcU6I6tUOHAZ3pZ0ivTUnwncoHnTU_qU8g6Gjm4dbLTHaWsazfqmsgZvpY_kVffH-vS-DAycFb5rEI39kfBH4l5p3MIib1SKnyIIuBkKBsIxx_K_2tCTc4U89QBYET6PAazoyG8dbKu8q-gmXzstEVImP_wMIhYRnPR9Eb_7SsxKDZYCOSz8GvZpKxSU7Van8EYUYI3j2DSOrFExKSyzBjRbVh0eMjCr0MPxRiKHgWW4X7ODKARJEi7xVquuNj5OknHFlsOhV-eEej3CJ4pFcyQZ5oKqQG8kv47co6ZcXMost6382rd25vYa10fa6CQ0fgM7aZCwG14_NDTt9-j9uxbeyFwixyreCAwkYe6sn0sdherYahzCJhhzPAKyHSODh_sJjpCRHZ_wCvo45y9IaSzUqZKAMZMNpghMgMDpHMSMTJTsvs5Ie-0i0]--></g></svg>