<?xml version="1.0" encoding="us-ascii" standalone="no"?><svg xmlns="http://www.w3.org/2000/svg" xmlns:xlink="http://www.w3.org/1999/xlink" contentStyleType="text/css" height="2406.25px" preserveAspectRatio="none" style="width:3859px;height:2406px;background:#FFFFFF;" version="1.1" viewBox="0 0 3859 2406" width="3859.375px" zoomAndPan="magnify"><defs/><g><text fill="#000000" font-family="sans-serif" font-size="21.875" font-weight="bold" lengthAdjust="spacing" textLength="484.375" x="1685.1563" y="53.9581">Chatbot Consultorio M&#233;dico - Flujo Principal</text><text fill="#000000" font-family="sans-serif" font-size="18.75" font-weight="bold" lengthAdjust="spacing" textLength="798.4375" x="1528.125" y="78.2288">Agendamiento, paquetes de sesiones, validaci&#243;n humana del pago y persistencia de datos</text><ellipse cx="1939.8438" cy="115.1611" fill="#222222" rx="15.625" ry="15.625" style="stroke:#222222;stroke-width:1.5625;"/><rect fill="#FFFFFF" height="54.834" rx="19.5313" ry="19.5313" style="stroke:#1A73E8;stroke-width:0.78125;" width="268.75" x="1805.4688" y="162.0361"/><text fill="#000000" font-family="sans-serif" font-size="18.75" lengthAdjust="spacing" textLength="237.5" x="1821.0938" y="197.1252">Usuario inicia conversaci&#243;n</text><rect fill="#FFFFFF" height="78.418" rx="19.5313" ry="19.5313" style="stroke:#1A73E8;stroke-width:0.78125;" width="551.5625" x="1664.0625" y="248.1201"/><text fill="#000000" font-family="sans-serif" font-size="18.75" lengthAdjust="spacing" textLength="196.875" x="1679.6875" y="283.2092">Mostrar men&#250; principal</text><text fill="#000000" font-family="sans-serif" font-size="18.75" lengthAdjust="spacing" textLength="520.3125" x="1679.6875" y="306.7932">(Agendar / Reagendar / Cancelar / Productos / Tips / Agenda)</text><polygon fill="#E3F2FD" points="1071.6797,357.7881,1221.6797,357.7881,1240.4297,376.5381,1221.6797,395.2881,1071.6797,395.2881,1052.9297,376.5381,1071.6797,357.7881" style="stroke:#1A73E8;stroke-width:0.78125;"/><text fill="#000000" font-family="sans-serif" font-size="17.1875" lengthAdjust="spacing" textLength="96.875" x="1152.9297" y="413.1302">Agendar cita</text><text fill="#000000" font-family="sans-serif" font-size="17.1875" lengthAdjust="spacing" textLength="150" x="1071.6797" y="383.5709">&#191;Qu&#233; desea hacer?</text><rect fill="none" height="1427.6123" style="stroke:#000000;stroke-width:2.34375;" width="1800" x="17.1875" y="448.1567"/><path d="M175,448.1567 L175,464.7339 L159.375,480.3589 L17.1875,480.3589 " fill="none" style="stroke:#000000;stroke-width:2.34375;"/><text fill="#000000" font-family="sans-serif" font-size="21.875" lengthAdjust="spacing" textLength="142.1875" x="21.875" y="472.4274">Agendamiento</text><rect fill="#FFFFFF" height="54.834" rx="19.5313" ry="19.5313" style="stroke:#1A73E8;stroke-width:0.78125;" width="332.8125" x="980.2734" y="506.9214"/><text fill="#000000" font-family="sans-serif" font-size="18.75" lengthAdjust="spacing" textLength="301.5625" x="995.8984" y="542.0105">Solicitar especialidad, sede y fecha</text><rect fill="#FFFFFF" height="54.834" rx="19.5313" ry="19.5313" style="stroke:#1A73E8;stroke-width:0.78125;" width="242.1875" x="1025.5859" y="616.4429"/><text fill="#000000" font-family="sans-serif" font-size="18.75" lengthAdjust="spacing" textLength="210.9375" x="1041.2109" y="651.532">Consultar disponibilidad</text><polygon fill="#E3F2FD" points="1070.1172,725.9644,1223.2422,725.9644,1241.9922,744.7144,1223.2422,763.4644,1070.1172,763.4644,1051.3672,744.7144,1070.1172,725.9644" style="stroke:#1A73E8;stroke-width:0.78125;"/><text fill="#000000" font-family="sans-serif" font-size="17.1875" lengthAdjust="spacing" textLength="153.125" x="1070.1172" y="751.7471">&#191;Hay disponibilidad?</text><text fill="#000000" font-family="sans-serif" font-size="17.1875" lengthAdjust="spacing" textLength="14.0625" x="1037.3047" y="740.9378">S&#237;</text><text fill="#000000" font-family="sans-serif" font-size="17.1875" lengthAdjust="spacing" textLength="20.3125" x="1241.9922" y="740.9378">No</text><rect fill="#FFFFFF" height="54.834" rx="19.5313" ry="19.5313" style="stroke:#1A73E8;stroke-width:0.78125;" width="317.1875" x="469.1406" y="779.0894"/><text fill="#000000" font-family="sans-serif" font-size="18.75" lengthAdjust="spacing" textLength="285.9375" x="484.7656" y="814.1785">Verificar si tiene sesiones activas</text><polygon fill="#E3F2FD" points="519.1406,888.6108,736.3281,888.6108,755.0781,907.3608,736.3281,926.1108,519.1406,926.1108,500.3906,907.3608,519.1406,888.6108" style="stroke:#1A73E8;stroke-width:0.78125;"/><text fill="#000000" font-family="sans-serif" font-size="17.1875" lengthAdjust="spacing" textLength="217.1875" x="519.1406" y="914.3936">&#191;Tiene sesiones por redimir?</text><text fill="#000000" font-family="sans-serif" font-size="17.1875" lengthAdjust="spacing" textLength="14.0625" x="486.3281" y="903.5843">S&#237;</text><text fill="#000000" font-family="sans-serif" font-size="17.1875" lengthAdjust="spacing" textLength="20.3125" x="755.0781" y="903.5843">No</text><rect fill="#FFFFFF" height="54.834" rx="19.5313" ry="19.5313" style="stroke:#1A73E8;stroke-width:0.78125;" width="137.5" x="195.3125" y="941.7358"/><text fill="#000000" font-family="sans-serif" font-size="18.75" lengthAdjust="spacing" textLength="106.25" x="210.9375" y="976.825">Usar sesi&#243;n</text><rect fill="none" height="241.8701" style="stroke:#000000;stroke-width:2.34375;" width="456.25" x="35.9375" y="1051.2573"/><path d="M171.875,1051.2573 L171.875,1067.8345 L156.25,1083.4595 L35.9375,1083.4595 " fill="none" style="stroke:#000000;stroke-width:2.34375;"/><text fill="#000000" font-family="sans-serif" font-size="21.875" lengthAdjust="spacing" textLength="120.3125" x="40.625" y="1075.528">Persistencia</text><rect fill="#FFFFFF" height="54.834" rx="19.5313" ry="19.5313" style="stroke:#1A73E8;stroke-width:0.78125;" width="425" x="51.5625" y="1110.022"/><text fill="#000000" font-family="sans-serif" font-size="18.75" lengthAdjust="spacing" textLength="393.75" x="67.1875" y="1145.1111">Guardar sesi&#243;n redimida y actualizar contador</text><rect fill="#FFFFFF" height="54.834" rx="19.5313" ry="19.5313" style="stroke:#1A73E8;stroke-width:0.78125;" width="325" x="101.5625" y="1219.5435"/><text fill="#000000" font-family="sans-serif" font-size="18.75" lengthAdjust="spacing" textLength="293.75" x="117.1875" y="1254.6326">Registrar cita como CONFIRMADA</text><rect fill="#FFFFFF" height="54.834" rx="19.5313" ry="19.5313" style="stroke:#1A73E8;stroke-width:0.78125;" width="235.9375" x="146.0938" y="1347.8149"/><text fill="#000000" font-family="sans-serif" font-size="18.75" lengthAdjust="spacing" textLength="204.6875" x="161.7188" y="1382.9041">Confirmar cita y notificar</text><rect fill="#FFFFFF" height="54.834" rx="19.5313" ry="19.5313" style="stroke:#1A73E8;stroke-width:0.78125;" width="298.4375" x="842.1875" y="941.7358"/><text fill="#000000" font-family="sans-serif" font-size="18.75" lengthAdjust="spacing" textLength="267.1875" x="857.8125" y="976.825">Mostrar valor y medios de pago</text><rect fill="#FFFFFF" height="54.834" rx="19.5313" ry="19.5313" style="stroke:#1A73E8;stroke-width:0.78125;" width="218.75" x="882.0313" y="1051.2573"/><text fill="#000000" font-family="sans-serif" font-size="18.75" lengthAdjust="spacing" textLength="187.5" x="897.6563" y="1086.3464">Solicitar comprobante</text><rect fill="none" height="602.4902" style="stroke:#000000;stroke-width:2.34375;" width="918.75" x="523.4375" y="1160.7788"/><path d="M728.125,1160.7788 L728.125,1177.356 L712.5,1192.981 L523.4375,1192.981 " fill="none" style="stroke:#000000;stroke-width:2.34375;"/><text fill="#000000" font-family="sans-serif" font-size="21.875" lengthAdjust="spacing" textLength="189.0625" x="528.125" y="1185.0494">Validaci&#243;n Humana</text><rect fill="#FFFFFF" height="54.834" rx="19.5313" ry="19.5313" style="stroke:#1A73E8;stroke-width:0.78125;" width="231.25" x="875.7813" y="1219.5435"/><text fill="#000000" font-family="sans-serif" font-size="18.75" lengthAdjust="spacing" textLength="200" x="891.4063" y="1254.6326">Backoffice verifica pago</text><polygon fill="#E3F2FD" points="925,1316.5649,1057.8125,1316.5649,1076.5625,1335.3149,1057.8125,1354.0649,925,1354.0649,906.25,1335.3149,925,1316.5649" style="stroke:#1A73E8;stroke-width:0.78125;"/><text fill="#000000" font-family="sans-serif" font-size="17.1875" lengthAdjust="spacing" textLength="132.8125" x="925" y="1342.3477">&#191;Pago aprobado?</text><text fill="#000000" font-family="sans-serif" font-size="17.1875" lengthAdjust="spacing" textLength="14.0625" x="892.1875" y="1331.5384">S&#237;</text><text fill="#000000" font-family="sans-serif" font-size="17.1875" lengthAdjust="spacing" textLength="20.3125" x="1076.5625" y="1331.5384">No</text><rect fill="none" height="241.8701" style="stroke:#000000;stroke-width:2.34375;" width="423.4375" x="554.6875" y="1369.6899"/><path d="M690.625,1369.6899 L690.625,1386.2671 L675,1401.8921 L554.6875,1401.8921 " fill="none" style="stroke:#000000;stroke-width:2.34375;"/><text fill="#000000" font-family="sans-serif" font-size="21.875" lengthAdjust="spacing" textLength="120.3125" x="559.375" y="1393.9606">Persistencia</text><rect fill="#FFFFFF" height="54.834" rx="19.5313" ry="19.5313" style="stroke:#1A73E8;stroke-width:0.78125;" width="392.1875" x="570.3125" y="1428.4546"/><text fill="#000000" font-family="sans-serif" font-size="18.75" lengthAdjust="spacing" textLength="360.9375" x="585.9375" y="1463.5437">Registrar estado de pago (CONFIRMADO)</text><rect fill="#FFFFFF" height="54.834" rx="19.5313" ry="19.5313" style="stroke:#1A73E8;stroke-width:0.78125;" width="315.625" x="608.5938" y="1525.4761"/><text fill="#000000" font-family="sans-serif" font-size="18.75" lengthAdjust="spacing" textLength="284.375" x="624.2188" y="1560.5652">Guardar cita como CONFIRMADA</text><rect fill="#FFFFFF" height="54.834" rx="19.5313" ry="19.5313" style="stroke:#1A73E8;stroke-width:0.78125;" width="321.875" x="605.4688" y="1642.8101"/><text fill="#000000" font-family="sans-serif" font-size="18.75" lengthAdjust="spacing" textLength="290.625" x="621.0938" y="1677.8992">Confirmar cita y enviar notificaci&#243;n</text><rect fill="none" height="132.3486" style="stroke:#000000;stroke-width:2.34375;" width="414.0625" x="1009.375" y="1369.6899"/><path d="M1145.3125,1369.6899 L1145.3125,1386.2671 L1129.6875,1401.8921 L1009.375,1401.8921 " fill="none" style="stroke:#000000;stroke-width:2.34375;"/><text fill="#000000" font-family="sans-serif" font-size="21.875" lengthAdjust="spacing" textLength="120.3125" x="1014.0625" y="1393.9606">Persistencia</text><rect fill="#FFFFFF" height="54.834" rx="19.5313" ry="19.5313" style="stroke:#1A73E8;stroke-width:0.78125;" width="382.8125" x="1025" y="1428.4546"/><text fill="#000000" font-family="sans-serif" font-size="18.75" lengthAdjust="spacing" textLength="351.5625" x="1040.625" y="1463.5437">Registrar estado de pago (RECHAZADO)</text><rect fill="#FFFFFF" height="54.834" rx="19.5313" ry="19.5313" style="stroke:#1A73E8;stroke-width:0.78125;" width="264.0625" x="1084.375" y="1556.7261"/><text fill="#000000" font-family="sans-serif" font-size="18.75" lengthAdjust="spacing" textLength="232.8125" x="1100" y="1591.8152">Notificar rechazo al usuario</text><polygon fill="#E3F2FD" points="991.4063,1707.019,1010.1563,1725.769,991.4063,1744.519,972.6563,1725.769,991.4063,1707.019" style="stroke:#1A73E8;stroke-width:0.78125;"/><polygon fill="#E3F2FD" points="627.7344,1772.644,646.4844,1791.394,627.7344,1810.144,608.9844,1791.394,627.7344,1772.644" style="stroke:#1A73E8;stroke-width:0.78125;"/><rect fill="#FFFFFF" height="54.834" rx="19.5313" ry="19.5313" style="stroke:#1A73E8;stroke-width:0.78125;" width="328.125" x="1457.8125" y="779.0894"/><text fill="#000000" font-family="sans-serif" font-size="18.75" lengthAdjust="spacing" textLength="296.875" x="1473.4375" y="814.1785">Informar que no hay disponibilidad</text><polygon fill="#E3F2FD" points="1146.6797,1819.519,1165.4297,1838.269,1146.6797,1857.019,1127.9297,1838.269,1146.6797,1819.519" style="stroke:#1A73E8;stroke-width:0.78125;"/><polygon fill="#E3F2FD" points="1973.4375,357.7881,2087.5,357.7881,2106.25,376.5381,2087.5,395.2881,1973.4375,395.2881,1954.6875,376.5381,1973.4375,357.7881" style="stroke:#1A73E8;stroke-width:0.78125;"/><text fill="#000000" font-family="sans-serif" font-size="17.1875" lengthAdjust="spacing" textLength="114.0625" x="1973.4375" y="383.5709">Reagendar cita</text><rect fill="none" height="563.4277" style="stroke:#000000;stroke-width:2.34375;" width="364.0625" x="1848.4375" y="426.5381"/><path d="M2032.8125,426.5381 L2032.8125,443.1152 L2017.1875,458.7402 L1848.4375,458.7402 " fill="none" style="stroke:#000000;stroke-width:2.34375;"/><text fill="#000000" font-family="sans-serif" font-size="21.875" lengthAdjust="spacing" textLength="168.75" x="1853.125" y="450.8087">Reagendamiento</text><rect fill="#FFFFFF" height="54.834" rx="19.5313" ry="19.5313" style="stroke:#1A73E8;stroke-width:0.78125;" width="290.625" x="1885.1563" y="485.3027"/><text fill="#000000" font-family="sans-serif" font-size="18.75" lengthAdjust="spacing" textLength="259.375" x="1900.7813" y="520.3918">Solicitar datos de la cita actual</text><rect fill="#FFFFFF" height="54.834" rx="19.5313" ry="19.5313" style="stroke:#1A73E8;stroke-width:0.78125;" width="329.6875" x="1865.625" y="594.8242"/><text fill="#000000" font-family="sans-serif" font-size="18.75" lengthAdjust="spacing" textLength="298.4375" x="1881.25" y="629.9133">Ofrecer nuevas fechas disponibles</text><rect fill="#FFFFFF" height="54.834" rx="19.5313" ry="19.5313" style="stroke:#1A73E8;stroke-width:0.78125;" width="207.8125" x="1926.5625" y="704.3457"/><text fill="#000000" font-family="sans-serif" font-size="18.75" lengthAdjust="spacing" textLength="176.5625" x="1942.1875" y="739.4348">Confirmar nueva cita</text><rect fill="none" height="144.8486" style="stroke:#000000;stroke-width:2.34375;" width="332.8125" x="1864.0625" y="813.8672"/><path d="M2000,813.8672 L2000,830.4443 L1984.375,846.0693 L1864.0625,846.0693 " fill="none" style="stroke:#000000;stroke-width:2.34375;"/><text fill="#000000" font-family="sans-serif" font-size="21.875" lengthAdjust="spacing" textLength="120.3125" x="1868.75" y="838.1378">Persistencia</text><rect fill="#FFFFFF" height="54.834" rx="19.5313" ry="19.5313" style="stroke:#1A73E8;stroke-width:0.78125;" width="301.5625" x="1879.6875" y="872.6318"/><text fill="#000000" font-family="sans-serif" font-size="18.75" lengthAdjust="spacing" textLength="270.3125" x="1895.3125" y="907.7209">Actualizar fecha y hora de la cita</text><polygon fill="#E3F2FD" points="2359.375,357.7881,2457.8125,357.7881,2476.5625,376.5381,2457.8125,395.2881,2359.375,395.2881,2340.625,376.5381,2359.375,357.7881" style="stroke:#1A73E8;stroke-width:0.78125;"/><text fill="#000000" font-family="sans-serif" font-size="17.1875" lengthAdjust="spacing" textLength="98.4375" x="2359.375" y="383.5709">Cancelar cita</text><rect fill="none" height="672.9492" style="stroke:#000000;stroke-width:2.34375;" width="354.6875" x="2231.25" y="426.5381"/><path d="M2368.75,426.5381 L2368.75,443.1152 L2353.125,458.7402 L2231.25,458.7402 " fill="none" style="stroke:#000000;stroke-width:2.34375;"/><text fill="#000000" font-family="sans-serif" font-size="21.875" lengthAdjust="spacing" textLength="121.875" x="2235.9375" y="450.8087">Cancelaci&#243;n</text><rect fill="#FFFFFF" height="54.834" rx="19.5313" ry="19.5313" style="stroke:#1A73E8;stroke-width:0.78125;" width="228.125" x="2294.5313" y="485.3027"/><text fill="#000000" font-family="sans-serif" font-size="18.75" lengthAdjust="spacing" textLength="196.875" x="2310.1563" y="520.3918">Solicitar cita a cancelar</text><rect fill="#FFFFFF" height="54.834" rx="19.5313" ry="19.5313" style="stroke:#1A73E8;stroke-width:0.78125;" width="225" x="2296.0938" y="594.8242"/><text fill="#000000" font-family="sans-serif" font-size="18.75" lengthAdjust="spacing" textLength="193.75" x="2311.7188" y="629.9133">Confirmar cancelaci&#243;n</text><rect fill="none" height="254.3701" style="stroke:#000000;stroke-width:2.34375;" width="323.4375" x="2246.875" y="704.3457"/><path d="M2382.8125,704.3457 L2382.8125,720.9229 L2367.1875,736.5479 L2246.875,736.5479 " fill="none" style="stroke:#000000;stroke-width:2.34375;"/><text fill="#000000" font-family="sans-serif" font-size="21.875" lengthAdjust="spacing" textLength="120.3125" x="2251.5625" y="728.6163">Persistencia</text><rect fill="#FFFFFF" height="54.834" rx="19.5313" ry="19.5313" style="stroke:#1A73E8;stroke-width:0.78125;" width="292.1875" x="2262.5" y="763.1104"/><text fill="#000000" font-family="sans-serif" font-size="18.75" lengthAdjust="spacing" textLength="260.9375" x="2278.125" y="798.1995">Registrar estado CANCELADA</text><rect fill="#FFFFFF" height="54.834" rx="19.5313" ry="19.5313" style="stroke:#1A73E8;stroke-width:0.78125;" width="262.5" x="2277.3438" y="872.6318"/><text fill="#000000" font-family="sans-serif" font-size="18.75" lengthAdjust="spacing" textLength="231.25" x="2292.9688" y="907.7209">Liberar espacio en agenda</text><rect fill="#FFFFFF" height="54.834" rx="19.5313" ry="19.5313" style="stroke:#1A73E8;stroke-width:0.78125;" width="200" x="2308.5938" y="1013.4033"/><text fill="#000000" font-family="sans-serif" font-size="18.75" lengthAdjust="spacing" textLength="168.75" x="2324.2188" y="1048.4924">Notificar al paciente</text><polygon fill="#E3F2FD" points="2771.0938,357.7881,2847.6563,357.7881,2866.4063,376.5381,2847.6563,395.2881,2771.0938,395.2881,2752.3438,376.5381,2771.0938,357.7881" style="stroke:#1A73E8;stroke-width:0.78125;"/><text fill="#000000" font-family="sans-serif" font-size="17.1875" lengthAdjust="spacing" textLength="76.5625" x="2771.0938" y="383.5709">Productos</text><rect fill="none" height="144.8486" style="stroke:#000000;stroke-width:2.34375;" width="415.625" x="2601.5625" y="426.5381"/><path d="M2717.1875,426.5381 L2717.1875,443.1152 L2701.5625,458.7402 L2601.5625,458.7402 " fill="none" style="stroke:#000000;stroke-width:2.34375;"/><text fill="#000000" font-family="sans-serif" font-size="21.875" lengthAdjust="spacing" textLength="100" x="2606.25" y="450.8087">Productos</text><rect fill="#FFFFFF" height="54.834" rx="19.5313" ry="19.5313" style="stroke:#1A73E8;stroke-width:0.78125;" width="384.375" x="2617.1875" y="485.3027"/><text fill="#000000" font-family="sans-serif" font-size="18.75" lengthAdjust="spacing" textLength="353.125" x="2632.8125" y="520.3918">Mostrar cat&#225;logo de productos y servicios</text><polygon fill="#E3F2FD" points="3214.8438,357.7881,3252.3438,357.7881,3271.0938,376.5381,3252.3438,395.2881,3214.8438,395.2881,3196.0938,376.5381,3214.8438,357.7881" style="stroke:#1A73E8;stroke-width:0.78125;"/><text fill="#000000" font-family="sans-serif" font-size="17.1875" lengthAdjust="spacing" textLength="31.25" x="3217.9688" y="383.5709">Tips</text><rect fill="none" height="144.8486" style="stroke:#000000;stroke-width:2.34375;" width="401.5625" x="3032.8125" y="426.5381"/><path d="M3210.9375,426.5381 L3210.9375,443.1152 L3195.3125,458.7402 L3032.8125,458.7402 " fill="none" style="stroke:#000000;stroke-width:2.34375;"/><text fill="#000000" font-family="sans-serif" font-size="21.875" lengthAdjust="spacing" textLength="162.5" x="3037.5" y="450.8087">Tips de Cuidado</text><rect fill="#FFFFFF" height="54.834" rx="19.5313" ry="19.5313" style="stroke:#1A73E8;stroke-width:0.78125;" width="370.3125" x="3048.4375" y="485.3027"/><text fill="#000000" font-family="sans-serif" font-size="18.75" lengthAdjust="spacing" textLength="339.0625" x="3064.0625" y="520.3918">Mostrar consejos de salud y prevenci&#243;n</text><polygon fill="#E3F2FD" points="3593.75,357.7881,3653.125,357.7881,3671.875,376.5381,3653.125,395.2881,3593.75,395.2881,3575,376.5381,3593.75,357.7881" style="stroke:#1A73E8;stroke-width:0.78125;"/><text fill="#000000" font-family="sans-serif" font-size="17.1875" lengthAdjust="spacing" textLength="59.375" x="3593.75" y="383.5709">Agenda</text><rect fill="none" height="254.3701" style="stroke:#000000;stroke-width:2.34375;" width="346.875" x="3450" y="426.5381"/><path d="M3542.1875,426.5381 L3542.1875,443.1152 L3526.5625,458.7402 L3450,458.7402 " fill="none" style="stroke:#000000;stroke-width:2.34375;"/><text fill="#000000" font-family="sans-serif" font-size="21.875" lengthAdjust="spacing" textLength="76.5625" x="3454.6875" y="450.8087">Agenda</text><rect fill="#FFFFFF" height="54.834" rx="19.5313" ry="19.5313" style="stroke:#1A73E8;stroke-width:0.78125;" width="282.8125" x="3482.0313" y="485.3027"/><text fill="#000000" font-family="sans-serif" font-size="18.75" lengthAdjust="spacing" textLength="251.5625" x="3497.6563" y="520.3918">Consultar citas programadas</text><rect fill="#FFFFFF" height="54.834" rx="19.5313" ry="19.5313" style="stroke:#1A73E8;stroke-width:0.78125;" width="315.625" x="3465.625" y="594.8242"/><text fill="#000000" font-family="sans-serif" font-size="18.75" lengthAdjust="spacing" textLength="284.375" x="3481.25" y="629.9133">Mostrar fechas, horarios y estado</text><rect fill="#FFFFFF" height="54.834" rx="19.5313" ry="19.5313" style="stroke:#1A73E8;stroke-width:0.78125;" width="276.5625" x="1801.5625" y="1938.269"/><text fill="#000000" font-family="sans-serif" font-size="18.75" lengthAdjust="spacing" textLength="245.3125" x="1817.1875" y="1973.3582">&#191;Desea realizar otra acci&#243;n?</text><polygon fill="#E3F2FD" points="1921.0938,2024.353,1958.5938,2024.353,1977.3438,2043.103,1958.5938,2061.853,1921.0938,2061.853,1902.3438,2043.103,1921.0938,2024.353" style="stroke:#1A73E8;stroke-width:0.78125;"/><text fill="#000000" font-family="sans-serif" font-size="17.1875" lengthAdjust="spacing" textLength="14.0625" x="1932.8125" y="2050.1358">S&#237;</text><text fill="#000000" font-family="sans-serif" font-size="17.1875" lengthAdjust="spacing" textLength="14.0625" x="1888.2813" y="2039.3265">S&#237;</text><text fill="#000000" font-family="sans-serif" font-size="17.1875" lengthAdjust="spacing" textLength="20.3125" x="1977.3438" y="2039.3265">No</text><rect fill="#FFFFFF" height="54.834" rx="19.5313" ry="19.5313" style="stroke:#1A73E8;stroke-width:0.78125;" width="157.8125" x="1747.6563" y="2077.478"/><text fill="#000000" font-family="sans-serif" font-size="18.75" lengthAdjust="spacing" textLength="126.5625" x="1763.2813" y="2112.5671">Volver al men&#250;</text><rect fill="#FFFFFF" height="54.834" rx="19.5313" ry="19.5313" style="stroke:#1A73E8;stroke-width:0.78125;" width="232.8125" x="1936.7188" y="2077.478"/><text fill="#000000" font-family="sans-serif" font-size="18.75" lengthAdjust="spacing" textLength="201.5625" x="1952.3438" y="2112.5671">Cerrar sesi&#243;n y finalizar</text><ellipse cx="2053.125" cy="2180.7495" fill="none" rx="17.1875" ry="17.1875" style="stroke:#222222;stroke-width:1.5625;"/><ellipse cx="2053.125" cy="2180.7495" fill="#222222" rx="9.375" ry="9.375" style="stroke:#222222;stroke-width:1.5625;"/><line style="stroke:#181818;stroke-width:1.5625;" x1="1939.8438" x2="1939.8438" y1="130.7861" y2="162.0361"/><polygon fill="#181818" points="1933.5938,146.4111,1939.8438,162.0361,1946.0938,146.4111,1939.8438,152.6611" style="stroke:#181818;stroke-width:1.5625;"/><line style="stroke:#181818;stroke-width:1.5625;" x1="1939.8438" x2="1939.8438" y1="216.8701" y2="248.1201"/><polygon fill="#181818" points="1933.5938,232.4951,1939.8438,248.1201,1946.0938,232.4951,1939.8438,238.7451" style="stroke:#181818;stroke-width:1.5625;"/><line style="stroke:#181818;stroke-width:1.5625;" x1="1146.6797" x2="1146.6797" y1="561.7554" y2="616.4429"/><polygon fill="#181818" points="1140.4297,600.8179,1146.6797,616.4429,1152.9297,600.8179,1146.6797,607.0679" style="stroke:#181818;stroke-width:1.5625;"/><line style="stroke:#181818;stroke-width:1.5625;" x1="264.0625" x2="264.0625" y1="1164.856" y2="1219.5435"/><polygon fill="#181818" points="257.8125,1203.9185,264.0625,1219.5435,270.3125,1203.9185,264.0625,1210.1685" style="stroke:#181818;stroke-width:1.5625;"/><line style="stroke:#181818;stroke-width:1.5625;" x1="264.0625" x2="264.0625" y1="996.5698" y2="1110.022"/><polygon fill="#181818" points="257.8125,1094.397,264.0625,1110.022,270.3125,1094.397,264.0625,1100.647" style="stroke:#181818;stroke-width:1.5625;"/><line style="stroke:#181818;stroke-width:1.5625;" x1="264.0625" x2="264.0625" y1="1274.3774" y2="1347.8149"/><polygon fill="#181818" points="257.8125,1332.1899,264.0625,1347.8149,270.3125,1332.1899,264.0625,1338.4399" style="stroke:#181818;stroke-width:1.5625;"/><line style="stroke:#181818;stroke-width:1.5625;" x1="991.4063" x2="991.4063" y1="996.5698" y2="1051.2573"/><polygon fill="#181818" points="985.1563,1035.6323,991.4063,1051.2573,997.6563,1035.6323,991.4063,1041.8823" style="stroke:#181818;stroke-width:1.5625;"/><line style="stroke:#181818;stroke-width:1.5625;" x1="766.4063" x2="766.4063" y1="1483.2886" y2="1525.4761"/><polygon fill="#181818" points="760.1563,1509.8511,766.4063,1525.4761,772.6563,1509.8511,766.4063,1516.1011" style="stroke:#181818;stroke-width:1.5625;"/><line style="stroke:#181818;stroke-width:1.5625;" x1="766.4063" x2="766.4063" y1="1580.3101" y2="1642.8101"/><polygon fill="#181818" points="760.1563,1627.1851,766.4063,1642.8101,772.6563,1627.1851,766.4063,1633.4351" style="stroke:#181818;stroke-width:1.5625;"/><line style="stroke:#181818;stroke-width:1.5625;" x1="1216.4063" x2="1216.4063" y1="1483.2886" y2="1556.7261"/><polygon fill="#181818" points="1210.1563,1541.1011,1216.4063,1556.7261,1222.6563,1541.1011,1216.4063,1547.3511" style="stroke:#181818;stroke-width:1.5625;"/><line style="stroke:#181818;stroke-width:1.5625;" x1="906.25" x2="766.4063" y1="1335.3149" y2="1335.3149"/><line style="stroke:#181818;stroke-width:1.5625;" x1="766.4063" x2="766.4063" y1="1335.3149" y2="1428.4546"/><polygon fill="#181818" points="760.1563,1412.8296,766.4063,1428.4546,772.6563,1412.8296,766.4063,1419.0796" style="stroke:#181818;stroke-width:1.5625;"/><line style="stroke:#181818;stroke-width:1.5625;" x1="1076.5625" x2="1216.4063" y1="1335.3149" y2="1335.3149"/><line style="stroke:#181818;stroke-width:1.5625;" x1="1216.4063" x2="1216.4063" y1="1335.3149" y2="1428.4546"/><polygon fill="#181818" points="1210.1563,1412.8296,1216.4063,1428.4546,1222.6563,1412.8296,1216.4063,1419.0796" style="stroke:#181818;stroke-width:1.5625;"/><line style="stroke:#181818;stroke-width:1.5625;" x1="766.4063" x2="766.4063" y1="1697.644" y2="1725.769"/><line style="stroke:#181818;stroke-width:1.5625;" x1="766.4063" x2="972.6563" y1="1725.769" y2="1725.769"/><polygon fill="#181818" points="957.0313,1719.519,972.6563,1725.769,957.0313,1732.019,963.2813,1725.769" style="stroke:#181818;stroke-width:1.5625;"/><line style="stroke:#181818;stroke-width:1.5625;" x1="1216.4063" x2="1216.4063" y1="1611.5601" y2="1725.769"/><line style="stroke:#181818;stroke-width:1.5625;" x1="1216.4063" x2="1010.1563" y1="1725.769" y2="1725.769"/><polygon fill="#181818" points="1025.7813,1719.519,1010.1563,1725.769,1025.7813,1732.019,1019.5313,1725.769" style="stroke:#181818;stroke-width:1.5625;"/><line style="stroke:#181818;stroke-width:1.5625;" x1="991.4063" x2="991.4063" y1="1274.3774" y2="1316.5649"/><polygon fill="#181818" points="985.1563,1300.9399,991.4063,1316.5649,997.6563,1300.9399,991.4063,1307.1899" style="stroke:#181818;stroke-width:1.5625;"/><line style="stroke:#181818;stroke-width:1.5625;" x1="991.4063" x2="991.4063" y1="1106.0913" y2="1219.5435"/><polygon fill="#181818" points="985.1563,1203.9185,991.4063,1219.5435,997.6563,1203.9185,991.4063,1210.1685" style="stroke:#181818;stroke-width:1.5625;"/><line style="stroke:#181818;stroke-width:1.5625;" x1="500.3906" x2="264.0625" y1="907.3608" y2="907.3608"/><line style="stroke:#181818;stroke-width:1.5625;" x1="264.0625" x2="264.0625" y1="907.3608" y2="941.7358"/><polygon fill="#181818" points="257.8125,926.1108,264.0625,941.7358,270.3125,926.1108,264.0625,932.3608" style="stroke:#181818;stroke-width:1.5625;"/><line style="stroke:#181818;stroke-width:1.5625;" x1="755.0781" x2="991.4063" y1="907.3608" y2="907.3608"/><line style="stroke:#181818;stroke-width:1.5625;" x1="991.4063" x2="991.4063" y1="907.3608" y2="941.7358"/><polygon fill="#181818" points="985.1563,926.1108,991.4063,941.7358,997.6563,926.1108,991.4063,932.3608" style="stroke:#181818;stroke-width:1.5625;"/><line style="stroke:#181818;stroke-width:1.5625;" x1="264.0625" x2="264.0625" y1="1402.6489" y2="1791.394"/><line style="stroke:#181818;stroke-width:1.5625;" x1="264.0625" x2="608.9844" y1="1791.394" y2="1791.394"/><polygon fill="#181818" points="593.3594,1785.144,608.9844,1791.394,593.3594,1797.644,599.6094,1791.394" style="stroke:#181818;stroke-width:1.5625;"/><line style="stroke:#181818;stroke-width:1.5625;" x1="991.4063" x2="991.4063" y1="1744.519" y2="1791.394"/><line style="stroke:#181818;stroke-width:1.5625;" x1="991.4063" x2="646.4844" y1="1791.394" y2="1791.394"/><polygon fill="#181818" points="662.1094,1785.144,646.4844,1791.394,662.1094,1797.644,655.8594,1791.394" style="stroke:#181818;stroke-width:1.5625;"/><line style="stroke:#181818;stroke-width:1.5625;" x1="627.7344" x2="627.7344" y1="833.9233" y2="888.6108"/><polygon fill="#181818" points="621.4844,872.9858,627.7344,888.6108,633.9844,872.9858,627.7344,879.2358" style="stroke:#181818;stroke-width:1.5625;"/><line style="stroke:#181818;stroke-width:1.5625;" x1="1051.3672" x2="627.7344" y1="744.7144" y2="744.7144"/><line style="stroke:#181818;stroke-width:1.5625;" x1="627.7344" x2="627.7344" y1="744.7144" y2="779.0894"/><polygon fill="#181818" points="621.4844,763.4644,627.7344,779.0894,633.9844,763.4644,627.7344,769.7144" style="stroke:#181818;stroke-width:1.5625;"/><line style="stroke:#181818;stroke-width:1.5625;" x1="1241.9922" x2="1621.875" y1="744.7144" y2="744.7144"/><line style="stroke:#181818;stroke-width:1.5625;" x1="1621.875" x2="1621.875" y1="744.7144" y2="779.0894"/><polygon fill="#181818" points="1615.625,763.4644,1621.875,779.0894,1628.125,763.4644,1621.875,769.7144" style="stroke:#181818;stroke-width:1.5625;"/><line style="stroke:#181818;stroke-width:1.5625;" x1="627.7344" x2="627.7344" y1="1810.144" y2="1838.269"/><line style="stroke:#181818;stroke-width:1.5625;" x1="627.7344" x2="1127.9297" y1="1838.269" y2="1838.269"/><polygon fill="#181818" points="1112.3047,1832.019,1127.9297,1838.269,1112.3047,1844.519,1118.5547,1838.269" style="stroke:#181818;stroke-width:1.5625;"/><line style="stroke:#181818;stroke-width:1.5625;" x1="1621.875" x2="1621.875" y1="833.9233" y2="1838.269"/><line style="stroke:#181818;stroke-width:1.5625;" x1="1621.875" x2="1165.4297" y1="1838.269" y2="1838.269"/><polygon fill="#181818" points="1181.0547,1832.019,1165.4297,1838.269,1181.0547,1844.519,1174.8047,1838.269" style="stroke:#181818;stroke-width:1.5625;"/><line style="stroke:#181818;stroke-width:1.5625;" x1="1146.6797" x2="1146.6797" y1="671.2769" y2="725.9644"/><polygon fill="#181818" points="1140.4297,710.3394,1146.6797,725.9644,1152.9297,710.3394,1146.6797,716.5894" style="stroke:#181818;stroke-width:1.5625;"/><line style="stroke:#181818;stroke-width:1.5625;" x1="2030.4688" x2="2030.4688" y1="540.1367" y2="594.8242"/><polygon fill="#181818" points="2024.2188,579.1992,2030.4688,594.8242,2036.7188,579.1992,2030.4688,585.4492" style="stroke:#181818;stroke-width:1.5625;"/><line style="stroke:#181818;stroke-width:1.5625;" x1="2030.4688" x2="2030.4688" y1="649.6582" y2="704.3457"/><polygon fill="#181818" points="2024.2188,688.7207,2030.4688,704.3457,2036.7188,688.7207,2030.4688,694.9707" style="stroke:#181818;stroke-width:1.5625;"/><line style="stroke:#181818;stroke-width:1.5625;" x1="2030.4688" x2="2030.4688" y1="759.1797" y2="872.6318"/><polygon fill="#181818" points="2024.2188,857.0068,2030.4688,872.6318,2036.7188,857.0068,2030.4688,863.2568" style="stroke:#181818;stroke-width:1.5625;"/><line style="stroke:#181818;stroke-width:1.5625;" x1="2408.5938" x2="2408.5938" y1="540.1367" y2="594.8242"/><polygon fill="#181818" points="2402.3438,579.1992,2408.5938,594.8242,2414.8438,579.1992,2408.5938,585.4492" style="stroke:#181818;stroke-width:1.5625;"/><line style="stroke:#181818;stroke-width:1.5625;" x1="2408.5938" x2="2408.5938" y1="817.9443" y2="872.6318"/><polygon fill="#181818" points="2402.3438,857.0068,2408.5938,872.6318,2414.8438,857.0068,2408.5938,863.2568" style="stroke:#181818;stroke-width:1.5625;"/><line style="stroke:#181818;stroke-width:1.5625;" x1="2408.5938" x2="2408.5938" y1="649.6582" y2="763.1104"/><polygon fill="#181818" points="2402.3438,747.4854,2408.5938,763.1104,2414.8438,747.4854,2408.5938,753.7354" style="stroke:#181818;stroke-width:1.5625;"/><line style="stroke:#181818;stroke-width:1.5625;" x1="2408.5938" x2="2408.5938" y1="927.4658" y2="1013.4033"/><polygon fill="#181818" points="2402.3438,997.7783,2408.5938,1013.4033,2414.8438,997.7783,2408.5938,1004.0283" style="stroke:#181818;stroke-width:1.5625;"/><line style="stroke:#181818;stroke-width:1.5625;" x1="3623.4375" x2="3623.4375" y1="540.1367" y2="594.8242"/><polygon fill="#181818" points="3617.1875,579.1992,3623.4375,594.8242,3629.6875,579.1992,3623.4375,585.4492" style="stroke:#181818;stroke-width:1.5625;"/><line style="stroke:#181818;stroke-width:1.5625;" x1="1146.6797" x2="1146.6797" y1="395.2881" y2="506.9214"/><polygon fill="#181818" points="1140.4297,491.2964,1146.6797,506.9214,1152.9297,491.2964,1146.6797,497.5464" style="stroke:#181818;stroke-width:1.5625;"/><line style="stroke:#181818;stroke-width:1.5625;" x1="1146.6797" x2="1146.6797" y1="1857.019" y2="1907.019"/><polygon fill="#181818" points="1140.4297,1891.394,1146.6797,1907.019,1152.9297,1891.394,1146.6797,1897.644" style="stroke:#181818;stroke-width:1.5625;"/><line style="stroke:#181818;stroke-width:1.5625;" x1="2030.4688" x2="2030.4688" y1="395.2881" y2="485.3027"/><polygon fill="#181818" points="2024.2188,469.6777,2030.4688,485.3027,2036.7188,469.6777,2030.4688,475.9277" style="stroke:#181818;stroke-width:1.5625;"/><line style="stroke:#181818;stroke-width:1.5625;" x1="2030.4688" x2="2030.4688" y1="927.4658" y2="1907.019"/><polygon fill="#181818" points="2024.2188,1891.394,2030.4688,1907.019,2036.7188,1891.394,2030.4688,1897.644" style="stroke:#181818;stroke-width:1.5625;"/><line style="stroke:#181818;stroke-width:1.5625;" x1="2408.5938" x2="2408.5938" y1="395.2881" y2="485.3027"/><polygon fill="#181818" points="2402.3438,469.6777,2408.5938,485.3027,2414.8438,469.6777,2408.5938,475.9277" style="stroke:#181818;stroke-width:1.5625;"/><line style="stroke:#181818;stroke-width:1.5625;" x1="2408.5938" x2="2408.5938" y1="1068.2373" y2="1907.019"/><polygon fill="#181818" points="2402.3438,1891.394,2408.5938,1907.019,2414.8438,1891.394,2408.5938,1897.644" style="stroke:#181818;stroke-width:1.5625;"/><line style="stroke:#181818;stroke-width:1.5625;" x1="2809.375" x2="2809.375" y1="395.2881" y2="485.3027"/><polygon fill="#181818" points="2803.125,469.6777,2809.375,485.3027,2815.625,469.6777,2809.375,475.9277" style="stroke:#181818;stroke-width:1.5625;"/><line style="stroke:#181818;stroke-width:1.5625;" x1="2809.375" x2="2809.375" y1="540.1367" y2="1907.019"/><polygon fill="#181818" points="2803.125,1891.394,2809.375,1907.019,2815.625,1891.394,2809.375,1897.644" style="stroke:#181818;stroke-width:1.5625;"/><line style="stroke:#181818;stroke-width:1.5625;" x1="3233.5938" x2="3233.5938" y1="395.2881" y2="485.3027"/><polygon fill="#181818" points="3227.3438,469.6777,3233.5938,485.3027,3239.8438,469.6777,3233.5938,475.9277" style="stroke:#181818;stroke-width:1.5625;"/><line style="stroke:#181818;stroke-width:1.5625;" x1="3233.5938" x2="3233.5938" y1="540.1367" y2="1907.019"/><polygon fill="#181818" points="3227.3438,1891.394,3233.5938,1907.019,3239.8438,1891.394,3233.5938,1897.644" style="stroke:#181818;stroke-width:1.5625;"/><line style="stroke:#181818;stroke-width:1.5625;" x1="3623.4375" x2="3623.4375" y1="395.2881" y2="485.3027"/><polygon fill="#181818" points="3617.1875,469.6777,3623.4375,485.3027,3629.6875,469.6777,3623.4375,475.9277" style="stroke:#181818;stroke-width:1.5625;"/><line style="stroke:#181818;stroke-width:1.5625;" x1="3623.4375" x2="3623.4375" y1="649.6582" y2="1907.019"/><polygon fill="#181818" points="3617.1875,1891.394,3623.4375,1907.019,3629.6875,1891.394,3623.4375,1897.644" style="stroke:#181818;stroke-width:1.5625;"/><line style="stroke:#181818;stroke-width:1.5625;" x1="1240.4297" x2="1954.6875" y1="376.5381" y2="376.5381"/><polygon fill="#181818" points="1939.0625,370.2881,1954.6875,376.5381,1939.0625,382.7881,1945.3125,376.5381" style="stroke:#181818;stroke-width:1.5625;"/><line style="stroke:#181818;stroke-width:1.5625;" x1="2106.25" x2="2340.625" y1="376.5381" y2="376.5381"/><polygon fill="#181818" points="2325,370.2881,2340.625,376.5381,2325,382.7881,2331.25,376.5381" style="stroke:#181818;stroke-width:1.5625;"/><line style="stroke:#181818;stroke-width:1.5625;" x1="2476.5625" x2="2752.3438" y1="376.5381" y2="376.5381"/><polygon fill="#181818" points="2736.7188,370.2881,2752.3438,376.5381,2736.7188,382.7881,2742.9688,376.5381" style="stroke:#181818;stroke-width:1.5625;"/><line style="stroke:#181818;stroke-width:1.5625;" x1="2866.4063" x2="3196.0938" y1="376.5381" y2="376.5381"/><polygon fill="#181818" points="3180.4688,370.2881,3196.0938,376.5381,3180.4688,382.7881,3186.7188,376.5381" style="stroke:#181818;stroke-width:1.5625;"/><line style="stroke:#181818;stroke-width:1.5625;" x1="3271.0938" x2="3575" y1="376.5381" y2="376.5381"/><polygon fill="#181818" points="3559.375,370.2881,3575,376.5381,3559.375,382.7881,3565.625,376.5381" style="stroke:#181818;stroke-width:1.5625;"/><line style="stroke:#181818;stroke-width:1.5625;" x1="1939.8438" x2="1939.8438" y1="326.5381" y2="334.3506"/><line style="stroke:#181818;stroke-width:1.5625;" x1="1939.8438" x2="1146.6797" y1="334.3506" y2="334.3506"/><line style="stroke:#181818;stroke-width:1.5625;" x1="1146.6797" x2="1146.6797" y1="334.3506" y2="357.7881"/><polygon fill="#181818" points="1140.4297,342.1631,1146.6797,357.7881,1152.9297,342.1631,1146.6797,348.4131" style="stroke:#181818;stroke-width:1.5625;"/><line style="stroke:#181818;stroke-width:1.5625;" x1="3671.875" x2="3818.75" y1="376.5381" y2="376.5381"/><line style="stroke:#181818;stroke-width:1.5625;" x1="3818.75" x2="3818.75" y1="376.5381" y2="1907.019"/><polygon fill="#181818" points="3812.5,1891.394,3818.75,1907.019,3825,1891.394,3818.75,1897.644" style="stroke:#181818;stroke-width:1.5625;"/><line style="stroke:#181818;stroke-width:1.5625;" x1="1146.6797" x2="3818.75" y1="1907.019" y2="1907.019"/><line style="stroke:#181818;stroke-width:1.5625;" x1="1939.8438" x2="1939.8438" y1="1907.019" y2="1938.269"/><polygon fill="#181818" points="1933.5938,1922.644,1939.8438,1938.269,1946.0938,1922.644,1939.8438,1928.894" style="stroke:#181818;stroke-width:1.5625;"/><line style="stroke:#181818;stroke-width:1.5625;" x1="1826.5625" x2="1826.5625" y1="2132.312" y2="2163.562"/><polygon fill="#181818" points="1820.3125,2147.937,1826.5625,2163.562,1832.8125,2147.937,1826.5625,2154.187" style="stroke:#181818;stroke-width:1.5625;"/><line style="stroke:#181818;stroke-width:1.5625;" x1="2053.125" x2="2053.125" y1="2132.312" y2="2163.562"/><polygon fill="#181818" points="2046.875,2147.937,2053.125,2163.562,2059.375,2147.937,2053.125,2154.187" style="stroke:#181818;stroke-width:1.5625;"/><line style="stroke:#181818;stroke-width:1.5625;" x1="1902.3438" x2="1826.5625" y1="2043.103" y2="2043.103"/><line style="stroke:#181818;stroke-width:1.5625;" x1="1826.5625" x2="1826.5625" y1="2043.103" y2="2077.478"/><polygon fill="#181818" points="1820.3125,2061.853,1826.5625,2077.478,1832.8125,2061.853,1826.5625,2068.103" style="stroke:#181818;stroke-width:1.5625;"/><line style="stroke:#181818;stroke-width:1.5625;" x1="1977.3438" x2="2053.125" y1="2043.103" y2="2043.103"/><line style="stroke:#181818;stroke-width:1.5625;" x1="2053.125" x2="2053.125" y1="2043.103" y2="2077.478"/><polygon fill="#181818" points="2046.875,2061.853,2053.125,2077.478,2059.375,2061.853,2053.125,2068.103" style="stroke:#181818;stroke-width:1.5625;"/><line style="stroke:#181818;stroke-width:1.5625;" x1="1939.8438" x2="1939.8438" y1="1993.103" y2="2024.353"/><polygon fill="#181818" points="1933.5938,2008.728,1939.8438,2024.353,1946.0938,2008.728,1939.8438,2014.978" style="stroke:#181818;stroke-width:1.5625;"/><rect fill="#DDDDDD" height="153.1982" id="_legend" rx="11.7188" ry="11.7188" style="stroke:#000000;stroke-width:1.5625;" width="643.75" x="3176.5625" y="2215.1245"/><text fill="#000000" font-family="sans-serif" font-size="21.875" font-weight="bold" lengthAdjust="spacing" textLength="62.5" x="3184.375" y="2245.6451">Notas</text><text fill="#000000" font-family="sans-serif" font-size="21.875" lengthAdjust="spacing" textLength="523.4375" x="3184.375" y="2273.1598">- Toda cita y sesi&#243;n usada se guarda en persistencia</text><text fill="#000000" font-family="sans-serif" font-size="21.875" lengthAdjust="spacing" textLength="628.125" x="3184.375" y="2300.6744">- Estados de pago: PENDIENTE / CONFIRMADO / RECHAZADO</text><text fill="#000000" font-family="sans-serif" font-size="21.875" lengthAdjust="spacing" textLength="534.375" x="3184.375" y="2328.1891">- Cancelaciones actualizan el estado y liberan espacio</text><text fill="#000000" font-family="sans-serif" font-size="21.875" lengthAdjust="spacing" textLength="556.25" x="3184.375" y="2355.7037">- Flujo mantiene la l&#243;gica original, ahora con trazabilidad</text><!--SRC=[hLPDRnit4BtlhnYa5yjGa3f1aK9A4wZwg0t4ikeuFXIzqClHYicAt99S0NBX7vDZ3Zdbrak0w8zrI2vtLzAspQ6vHERE36VUUpD3yrx8Wccs1bu8EFlX-yJK9oorOYFi5lvC07vcwVjCgrBoiSgLXkzc_f__egkZiz7pPzCVwMWYs5f9VkGpVJPxEfkq39JcUEJTTVgG95RO79FnYjaxPM6if2bpgxHGSBdxo4Mgu37CylATWeKMCXK5ovCNIoKj676FFvqzVJdAK7As5YYjwaF1_YZHeW6EOD089T7qOSDomLagTfybhCerauo-vsISATX2WTe8Ov72ktFWp2hpuecxvML2mI4acHZBj4q6Rqt9N8922kUGAhcX027wC1bSAcCrqx16kViBYfZrx_8aPAhX2LmZgt-FcKmnzpyNMl4ofSlfzuqet7_1fpTC4h64awzVVYrt7ob7WmnMB4NzgWTsXHBguAcmh4Tu4zkKDjKFZze8FVAy0mpUg5muMmre2gH274AyJw0H0bjOOhfYms1QiKAcN9X2IN4dl77u7F8wPzk3htLcRtQVUjwIGjsY5akHKYWZ25QK3Kj1cSmCAziGzsRVfY3rQEHYBNHNVBhXhN71oTwp4OzRQ2nQR4SqAjzVY5ZUk5StSKPuK78bGNJl42PTCAxqiErwZPa8l3jGoMQjO7mrdrrSNuuceyRqeScKO5qAlOukMv3A1d2YEUO6uMIkMkL5TP6Y2OejgOmBvTNknDpSq-ANSYcqkcFI8ice0v7RLdUS- -uumCMrl5fIQWYRYi23wo9T2zTHp5_7LJT3tqp70Qve7EgnKZYfqRtg3G-z8f7_piK-7zsSeDm8-YjIa-xBgekY_wk-w-duVFJRSNa76S-ZQ4YjrBBt17yEPHXHUubABfP7CcnE3miPNCYbyaZGGANwQTniE_i_XdX8N0WdWsQwTGoZ-F4Vnv6VlWw6d0KIGkjLi-XgIMKY4L8YpOemfaoTLuwccLaLaTxIHmgV_fERmQZfTH-VPB1IchLo2f4UzggkvtX7qTKthvwEaaEPa5OHZaf8M-xVMiIHiCQZ-NZwkjK0WzVY3eD1GR4LCGc1cwQyFO4njp5JnniEzqglzzP1sVLvNNCSNocpkm-voeBUwxMtfT6hDuIAClitk6ru4DmlIF8UbqwBwlWAsbhuBaZ9iBpaRjDht3YWAXoR-DMQxTgRTU1c3Jg-Z4ixenSLut5drLS7LVQzQhJmTGKIgajznoI3hrycVf5hhDIco9laxlDxDVGRtutE_Iawk5KvJM77XdzYk9YPiWh2ywJTnuCnQjtQPxJMXGntEIzZLH6JoT4L2rfaAvkSdXBfp9oU9e_XHd4MXs6CKnegclw2pCzP9vps6ugyfhxSUYyDO36TJowcyvkfU_7KazizXUAO8w-wJU9x8BIXfE4KLRo5tAjMHjKcyNr8UoiyAAX7yztdp2qfUaXchk8-CD_1f0aWZEzPDS5SzQ7olm40]--></g></svg>