<?xml version="1.0" encoding="us-ascii" standalone="no"?><svg xmlns="http://www.w3.org/2000/svg" xmlns:xlink="http://www.w3.org/1999/xlink" contentStyleType="text/css" height="1590.625px" preserveAspectRatio="none" style="width:1850px;height:1590px;background:#FFFFFF;" version="1.1" viewBox="0 0 1850 1590" width="1850px" zoomAndPan="magnify"><defs/><g><text fill="#000000" font-family="sans-serif" font-size="21.875" font-weight="bold" lengthAdjust="spacing" textLength="706.25" x="569.6045" y="53.9581">Chatbot Consultorio M&#233;dico - Flujo para Profesional de Atenci&#243;n</text><text fill="#000000" font-family="sans-serif" font-size="18.75" font-weight="bold" lengthAdjust="spacing" textLength="392.1875" x="726.6357" y="78.2288">Validaci&#243;n de rol y gesti&#243;n simple de agenda</text><ellipse cx="1190.7715" cy="115.1611" fill="#222222" rx="15.625" ry="15.625" style="stroke:#222222;stroke-width:1.5625;"/><rect fill="#FFFFFF" height="54.834" rx="19.5313" ry="19.5313" style="stroke:#388E3C;stroke-width:0.78125;" width="268.75" x="1056.3965" y="162.0361"/><text fill="#000000" font-family="sans-serif" font-size="18.75" lengthAdjust="spacing" textLength="237.5" x="1072.0215" y="197.1252">Usuario inicia conversaci&#243;n</text><rect fill="#FFFFFF" height="54.834" rx="19.5313" ry="19.5313" style="stroke:#388E3C;stroke-width:0.78125;" width="217.1875" x="1082.1777" y="248.1201"/><text fill="#000000" font-family="sans-serif" font-size="18.75" lengthAdjust="spacing" textLength="185.9375" x="1097.8027" y="283.2092">Solicitar identificaci&#243;n</text><rect fill="#FFFFFF" height="54.834" rx="19.5313" ry="19.5313" style="stroke:#388E3C;stroke-width:0.78125;" width="228.125" x="1076.709" y="334.2041"/><text fill="#000000" font-family="sans-serif" font-size="18.75" lengthAdjust="spacing" textLength="196.875" x="1092.334" y="369.2932">Verificar rol del usuario</text><polygon fill="#E8F5E9" points="1081.3965,420.2881,1300.1465,420.2881,1318.8965,439.0381,1300.1465,457.7881,1081.3965,457.7881,1062.6465,439.0381,1081.3965,420.2881" style="stroke:#388E3C;stroke-width:0.78125;"/><text fill="#000000" font-family="sans-serif" font-size="17.1875" lengthAdjust="spacing" textLength="218.75" x="1081.3965" y="446.0709">&#191;Es profesional de atenci&#243;n?</text><text fill="#000000" font-family="sans-serif" font-size="17.1875" lengthAdjust="spacing" textLength="14.0625" x="1048.584" y="435.2615">S&#237;</text><text fill="#000000" font-family="sans-serif" font-size="17.1875" lengthAdjust="spacing" textLength="20.3125" x="1318.8965" y="435.2615">No</text><rect fill="#FFFFFF" height="54.834" rx="19.5313" ry="19.5313" style="stroke:#388E3C;stroke-width:0.78125;" width="264.0625" x="683.8867" y="473.4131"/><text fill="#000000" font-family="sans-serif" font-size="18.75" lengthAdjust="spacing" textLength="232.8125" x="699.5117" y="508.5022">Ver agenda de citas del d&#237;a</text><polygon fill="#E8F5E9" points="719.043,559.4971,912.793,559.4971,931.543,578.2471,912.793,596.9971,719.043,596.9971,700.293,578.2471,719.043,559.4971" style="stroke:#388E3C;stroke-width:0.78125;"/><text fill="#000000" font-family="sans-serif" font-size="17.1875" lengthAdjust="spacing" textLength="193.75" x="719.043" y="585.2798">&#191;Hay citas programadas?</text><text fill="#000000" font-family="sans-serif" font-size="17.1875" lengthAdjust="spacing" textLength="14.0625" x="686.2305" y="574.4705">S&#237;</text><text fill="#000000" font-family="sans-serif" font-size="17.1875" lengthAdjust="spacing" textLength="20.3125" x="931.543" y="574.4705">No</text><rect fill="#FFFFFF" height="54.834" rx="19.5313" ry="19.5313" style="stroke:#388E3C;stroke-width:0.78125;" width="167.1875" x="320.8984" y="612.6221"/><text fill="#000000" font-family="sans-serif" font-size="18.75" lengthAdjust="spacing" textLength="135.9375" x="336.5234" y="647.7112">Seleccionar cita</text><polygon fill="#E8F5E9" points="311.5234,698.7061,497.4609,698.7061,516.2109,717.4561,497.4609,736.2061,311.5234,736.2061,292.7734,717.4561,311.5234,698.7061" style="stroke:#388E3C;stroke-width:0.78125;"/><text fill="#000000" font-family="sans-serif" font-size="17.1875" lengthAdjust="spacing" textLength="185.9375" x="311.5234" y="724.4888">&#191;Desea cancelar la cita?</text><text fill="#000000" font-family="sans-serif" font-size="17.1875" lengthAdjust="spacing" textLength="14.0625" x="278.7109" y="713.6795">S&#237;</text><text fill="#000000" font-family="sans-serif" font-size="17.1875" lengthAdjust="spacing" textLength="20.3125" x="516.2109" y="713.6795">No</text><rect fill="#FFFFFF" height="54.834" rx="19.5313" ry="19.5313" style="stroke:#388E3C;stroke-width:0.78125;" width="218.75" x="39.0625" y="751.8311"/><text fill="#000000" font-family="sans-serif" font-size="18.75" lengthAdjust="spacing" textLength="187.5" x="54.6875" y="786.9202">Registrar cancelaci&#243;n</text><rect fill="#FFFFFF" height="54.834" rx="19.5313" ry="19.5313" style="stroke:#388E3C;stroke-width:0.78125;" width="262.5" x="17.1875" y="861.3525"/><text fill="#000000" font-family="sans-serif" font-size="18.75" lengthAdjust="spacing" textLength="231.25" x="32.8125" y="896.4417">Liberar espacio en agenda</text><polygon fill="#E8F5E9" points="580.8594,751.8311,740.2344,751.8311,758.9844,770.5811,740.2344,789.3311,580.8594,789.3311,562.1094,770.5811,580.8594,751.8311" style="stroke:#388E3C;stroke-width:0.78125;"/><text fill="#000000" font-family="sans-serif" font-size="17.1875" lengthAdjust="spacing" textLength="159.375" x="580.8594" y="777.6138">&#191;Paciente no asisti&#243;?</text><text fill="#000000" font-family="sans-serif" font-size="17.1875" lengthAdjust="spacing" textLength="14.0625" x="548.0469" y="766.8045">S&#237;</text><text fill="#000000" font-family="sans-serif" font-size="17.1875" lengthAdjust="spacing" textLength="20.3125" x="758.9844" y="766.8045">No</text><rect fill="#FFFFFF" height="54.834" rx="19.5313" ry="19.5313" style="stroke:#388E3C;stroke-width:0.78125;" width="306.25" x="326.5625" y="804.9561"/><text fill="#000000" font-family="sans-serif" font-size="18.75" lengthAdjust="spacing" textLength="275" x="342.1875" y="840.0452">Marcar cita como NO ATENDIDA</text><rect fill="#FFFFFF" height="54.834" rx="19.5313" ry="19.5313" style="stroke:#388E3C;stroke-width:0.78125;" width="304.6875" x="327.3438" y="914.4775"/><text fill="#000000" font-family="sans-serif" font-size="18.75" lengthAdjust="spacing" textLength="273.4375" x="342.9688" y="949.5667">Registrar motivo (no asistencia)</text><rect fill="#FFFFFF" height="78.418" rx="19.5313" ry="19.5313" style="stroke:#388E3C;stroke-width:0.78125;" width="354.6875" x="664.0625" y="804.9561"/><text fill="#000000" font-family="sans-serif" font-size="18.75" lengthAdjust="spacing" textLength="226.5625" x="679.6875" y="840.0452">No hacer acci&#243;n adicional;</text><text fill="#000000" font-family="sans-serif" font-size="18.75" lengthAdjust="spacing" textLength="323.4375" x="679.6875" y="863.6292">(Se considera ATENDIDA por defecto)</text><polygon fill="#E8F5E9" points="660.5469,978.6865,679.2969,997.4365,660.5469,1016.1865,641.7969,997.4365,660.5469,978.6865" style="stroke:#388E3C;stroke-width:0.78125;"/><polygon fill="#E8F5E9" points="404.4922,1025.5615,423.2422,1044.3115,404.4922,1063.0615,385.7422,1044.3115,404.4922,1025.5615" style="stroke:#388E3C;stroke-width:0.78125;"/><rect fill="#FFFFFF" height="54.834" rx="19.5313" ry="19.5313" style="stroke:#388E3C;stroke-width:0.78125;" width="175" x="316.9922" y="1094.3115"/><text fill="#000000" font-family="sans-serif" font-size="18.75" lengthAdjust="spacing" textLength="143.75" x="332.6172" y="1129.4006">&#191;Hay m&#225;s citas?</text><polygon fill="#E8F5E9" points="385.7422,1180.3955,423.2422,1180.3955,441.9922,1199.1455,423.2422,1217.8955,385.7422,1217.8955,366.9922,1199.1455,385.7422,1180.3955" style="stroke:#388E3C;stroke-width:0.78125;"/><text fill="#000000" font-family="sans-serif" font-size="17.1875" lengthAdjust="spacing" textLength="14.0625" x="397.4609" y="1206.1783">S&#237;</text><text fill="#000000" font-family="sans-serif" font-size="17.1875" lengthAdjust="spacing" textLength="14.0625" x="352.9297" y="1195.369">S&#237;</text><text fill="#000000" font-family="sans-serif" font-size="17.1875" lengthAdjust="spacing" textLength="20.3125" x="441.9922" y="1195.369">No</text><rect fill="#FFFFFF" height="54.834" rx="19.5313" ry="19.5313" style="stroke:#388E3C;stroke-width:0.78125;" width="173.4375" x="388.4766" y="1233.5205"/><text fill="#000000" font-family="sans-serif" font-size="18.75" lengthAdjust="spacing" textLength="142.1875" x="404.1016" y="1268.6096">Finalizar jornada</text><ellipse cx="475.1953" cy="1336.792" fill="none" rx="17.1875" ry="17.1875" style="stroke:#222222;stroke-width:1.5625;"/><ellipse cx="475.1953" cy="1336.792" fill="#222222" rx="9.375" ry="9.375" style="stroke:#222222;stroke-width:1.5625;"/><rect fill="#FFFFFF" height="54.834" rx="19.5313" ry="19.5313" style="stroke:#388E3C;stroke-width:0.78125;" width="292.1875" x="1034.375" y="612.6221"/><text fill="#000000" font-family="sans-serif" font-size="18.75" lengthAdjust="spacing" textLength="260.9375" x="1050" y="647.7112">No hay citas programadas hoy</text><rect fill="#FFFFFF" height="54.834" rx="19.5313" ry="19.5313" style="stroke:#388E3C;stroke-width:0.78125;" width="173.4375" x="1093.75" y="698.7061"/><text fill="#000000" font-family="sans-serif" font-size="18.75" lengthAdjust="spacing" textLength="142.1875" x="1109.375" y="733.7952">Finalizar jornada</text><ellipse cx="1180.4688" cy="825.415" fill="none" rx="17.1875" ry="17.1875" style="stroke:#222222;stroke-width:1.5625;"/><ellipse cx="1180.4688" cy="825.415" fill="#222222" rx="9.375" ry="9.375" style="stroke:#222222;stroke-width:1.5625;"/><rect fill="#FFFFFF" height="54.834" rx="19.5313" ry="19.5313" style="stroke:#388E3C;stroke-width:0.78125;" width="478.125" x="1354.834" y="473.4131"/><text fill="#000000" font-family="sans-serif" font-size="18.75" lengthAdjust="spacing" textLength="446.875" x="1370.459" y="508.5022">Redirigir al flujo correspondiente (ver otro diagrama)</text><ellipse cx="1593.8965" cy="576.6846" fill="none" rx="17.1875" ry="17.1875" style="stroke:#222222;stroke-width:1.5625;"/><ellipse cx="1593.8965" cy="576.6846" fill="#222222" rx="9.375" ry="9.375" style="stroke:#222222;stroke-width:1.5625;"/><line style="stroke:#181818;stroke-width:1.5625;" x1="1190.7715" x2="1190.7715" y1="130.7861" y2="162.0361"/><polygon fill="#181818" points="1184.5215,146.4111,1190.7715,162.0361,1197.0215,146.4111,1190.7715,152.6611" style="stroke:#181818;stroke-width:1.5625;"/><line style="stroke:#181818;stroke-width:1.5625;" x1="1190.7715" x2="1190.7715" y1="216.8701" y2="248.1201"/><polygon fill="#181818" points="1184.5215,232.4951,1190.7715,248.1201,1197.0215,232.4951,1190.7715,238.7451" style="stroke:#181818;stroke-width:1.5625;"/><line style="stroke:#181818;stroke-width:1.5625;" x1="1190.7715" x2="1190.7715" y1="302.9541" y2="334.2041"/><polygon fill="#181818" points="1184.5215,318.5791,1190.7715,334.2041,1197.0215,318.5791,1190.7715,324.8291" style="stroke:#181818;stroke-width:1.5625;"/><line style="stroke:#181818;stroke-width:1.5625;" x1="148.4375" x2="148.4375" y1="806.665" y2="861.3525"/><polygon fill="#181818" points="142.1875,845.7275,148.4375,861.3525,154.6875,845.7275,148.4375,851.9775" style="stroke:#181818;stroke-width:1.5625;"/><line style="stroke:#181818;stroke-width:1.5625;" x1="479.6875" x2="479.6875" y1="859.79" y2="914.4775"/><polygon fill="#181818" points="473.4375,898.8525,479.6875,914.4775,485.9375,898.8525,479.6875,905.1025" style="stroke:#181818;stroke-width:1.5625;"/><line style="stroke:#181818;stroke-width:1.5625;" x1="562.1094" x2="479.6875" y1="770.5811" y2="770.5811"/><line style="stroke:#181818;stroke-width:1.5625;" x1="479.6875" x2="479.6875" y1="770.5811" y2="804.9561"/><polygon fill="#181818" points="473.4375,789.3311,479.6875,804.9561,485.9375,789.3311,479.6875,795.5811" style="stroke:#181818;stroke-width:1.5625;"/><line style="stroke:#181818;stroke-width:1.5625;" x1="758.9844" x2="841.4063" y1="770.5811" y2="770.5811"/><line style="stroke:#181818;stroke-width:1.5625;" x1="841.4063" x2="841.4063" y1="770.5811" y2="804.9561"/><polygon fill="#181818" points="835.1563,789.3311,841.4063,804.9561,847.6563,789.3311,841.4063,795.5811" style="stroke:#181818;stroke-width:1.5625;"/><line style="stroke:#181818;stroke-width:1.5625;" x1="479.6875" x2="479.6875" y1="969.3115" y2="997.4365"/><line style="stroke:#181818;stroke-width:1.5625;" x1="479.6875" x2="641.7969" y1="997.4365" y2="997.4365"/><polygon fill="#181818" points="626.1719,991.1865,641.7969,997.4365,626.1719,1003.6865,632.4219,997.4365" style="stroke:#181818;stroke-width:1.5625;"/><line style="stroke:#181818;stroke-width:1.5625;" x1="841.4063" x2="841.4063" y1="883.374" y2="997.4365"/><line style="stroke:#181818;stroke-width:1.5625;" x1="841.4063" x2="679.2969" y1="997.4365" y2="997.4365"/><polygon fill="#181818" points="694.9219,991.1865,679.2969,997.4365,694.9219,1003.6865,688.6719,997.4365" style="stroke:#181818;stroke-width:1.5625;"/><line style="stroke:#181818;stroke-width:1.5625;" x1="292.7734" x2="148.4375" y1="717.4561" y2="717.4561"/><line style="stroke:#181818;stroke-width:1.5625;" x1="148.4375" x2="148.4375" y1="717.4561" y2="751.8311"/><polygon fill="#181818" points="142.1875,736.2061,148.4375,751.8311,154.6875,736.2061,148.4375,742.4561" style="stroke:#181818;stroke-width:1.5625;"/><line style="stroke:#181818;stroke-width:1.5625;" x1="516.2109" x2="660.5469" y1="717.4561" y2="717.4561"/><line style="stroke:#181818;stroke-width:1.5625;" x1="660.5469" x2="660.5469" y1="717.4561" y2="751.8311"/><polygon fill="#181818" points="654.2969,736.2061,660.5469,751.8311,666.7969,736.2061,660.5469,742.4561" style="stroke:#181818;stroke-width:1.5625;"/><line style="stroke:#181818;stroke-width:1.5625;" x1="148.4375" x2="148.4375" y1="916.1865" y2="1044.3115"/><line style="stroke:#181818;stroke-width:1.5625;" x1="148.4375" x2="385.7422" y1="1044.3115" y2="1044.3115"/><polygon fill="#181818" points="370.1172,1038.0615,385.7422,1044.3115,370.1172,1050.5615,376.3672,1044.3115" style="stroke:#181818;stroke-width:1.5625;"/><line style="stroke:#181818;stroke-width:1.5625;" x1="660.5469" x2="660.5469" y1="1016.1865" y2="1044.3115"/><line style="stroke:#181818;stroke-width:1.5625;" x1="660.5469" x2="423.2422" y1="1044.3115" y2="1044.3115"/><polygon fill="#181818" points="438.8672,1038.0615,423.2422,1044.3115,438.8672,1050.5615,432.6172,1044.3115" style="stroke:#181818;stroke-width:1.5625;"/><line style="stroke:#181818;stroke-width:1.5625;" x1="404.4922" x2="404.4922" y1="667.4561" y2="698.7061"/><polygon fill="#181818" points="398.2422,683.0811,404.4922,698.7061,410.7422,683.0811,404.4922,689.3311" style="stroke:#181818;stroke-width:1.5625;"/><line style="stroke:#181818;stroke-width:1.5625;" x1="404.4922" x2="404.4922" y1="1063.0615" y2="1094.3115"/><polygon fill="#181818" points="398.2422,1078.6865,404.4922,1094.3115,410.7422,1078.6865,404.4922,1084.9365" style="stroke:#181818;stroke-width:1.5625;"/><line style="stroke:#181818;stroke-width:1.5625;" x1="475.1953" x2="475.1953" y1="1288.3545" y2="1319.6045"/><polygon fill="#181818" points="468.9453,1303.9795,475.1953,1319.6045,481.4453,1303.9795,475.1953,1310.2295" style="stroke:#181818;stroke-width:1.5625;"/><line style="stroke:#181818;stroke-width:1.5625;" x1="366.9922" x2="333.7891" y1="1199.1455" y2="1199.1455"/><line style="stroke:#181818;stroke-width:1.5625;" x1="333.7891" x2="333.7891" y1="1199.1455" y2="1233.5205"/><polygon fill="#181818" points="327.5391,1217.8955,333.7891,1233.5205,340.0391,1217.8955,333.7891,1224.1455" style="stroke:#181818;stroke-width:1.5625;"/><line style="stroke:#181818;stroke-width:1.5625;" x1="441.9922" x2="475.1953" y1="1199.1455" y2="1199.1455"/><line style="stroke:#181818;stroke-width:1.5625;" x1="475.1953" x2="475.1953" y1="1199.1455" y2="1233.5205"/><polygon fill="#181818" points="468.9453,1217.8955,475.1953,1233.5205,481.4453,1217.8955,475.1953,1224.1455" style="stroke:#181818;stroke-width:1.5625;"/><line style="stroke:#181818;stroke-width:1.5625;" x1="404.4922" x2="404.4922" y1="1149.1455" y2="1180.3955"/><polygon fill="#181818" points="398.2422,1164.7705,404.4922,1180.3955,410.7422,1164.7705,404.4922,1171.0205" style="stroke:#181818;stroke-width:1.5625;"/><line style="stroke:#181818;stroke-width:1.5625;" x1="1180.4688" x2="1180.4688" y1="667.4561" y2="698.7061"/><polygon fill="#181818" points="1174.2188,683.0811,1180.4688,698.7061,1186.7188,683.0811,1180.4688,689.3311" style="stroke:#181818;stroke-width:1.5625;"/><line style="stroke:#181818;stroke-width:1.5625;" x1="1180.4688" x2="1180.4688" y1="753.54" y2="808.2275"/><polygon fill="#181818" points="1174.2188,792.6025,1180.4688,808.2275,1186.7188,792.6025,1180.4688,798.8525" style="stroke:#181818;stroke-width:1.5625;"/><line style="stroke:#181818;stroke-width:1.5625;" x1="700.293" x2="404.4922" y1="578.2471" y2="578.2471"/><line style="stroke:#181818;stroke-width:1.5625;" x1="404.4922" x2="404.4922" y1="578.2471" y2="612.6221"/><polygon fill="#181818" points="398.2422,596.9971,404.4922,612.6221,410.7422,596.9971,404.4922,603.2471" style="stroke:#181818;stroke-width:1.5625;"/><line style="stroke:#181818;stroke-width:1.5625;" x1="931.543" x2="1180.4688" y1="578.2471" y2="578.2471"/><line style="stroke:#181818;stroke-width:1.5625;" x1="1180.4688" x2="1180.4688" y1="578.2471" y2="612.6221"/><polygon fill="#181818" points="1174.2188,596.9971,1180.4688,612.6221,1186.7188,596.9971,1180.4688,603.2471" style="stroke:#181818;stroke-width:1.5625;"/><line style="stroke:#181818;stroke-width:1.5625;" x1="815.918" x2="815.918" y1="528.2471" y2="559.4971"/><polygon fill="#181818" points="809.668,543.8721,815.918,559.4971,822.168,543.8721,815.918,550.1221" style="stroke:#181818;stroke-width:1.5625;"/><line style="stroke:#181818;stroke-width:1.5625;" x1="1593.8965" x2="1593.8965" y1="528.2471" y2="559.4971"/><polygon fill="#181818" points="1587.6465,543.8721,1593.8965,559.4971,1600.1465,543.8721,1593.8965,550.1221" style="stroke:#181818;stroke-width:1.5625;"/><line style="stroke:#181818;stroke-width:1.5625;" x1="1062.6465" x2="815.918" y1="439.0381" y2="439.0381"/><line style="stroke:#181818;stroke-width:1.5625;" x1="815.918" x2="815.918" y1="439.0381" y2="473.4131"/><polygon fill="#181818" points="809.668,457.7881,815.918,473.4131,822.168,457.7881,815.918,464.0381" style="stroke:#181818;stroke-width:1.5625;"/><line style="stroke:#181818;stroke-width:1.5625;" x1="1318.8965" x2="1593.8965" y1="439.0381" y2="439.0381"/><line style="stroke:#181818;stroke-width:1.5625;" x1="1593.8965" x2="1593.8965" y1="439.0381" y2="473.4131"/><polygon fill="#181818" points="1587.6465,457.7881,1593.8965,473.4131,1600.1465,457.7881,1593.8965,464.0381" style="stroke:#181818;stroke-width:1.5625;"/><line style="stroke:#181818;stroke-width:1.5625;" x1="1190.7715" x2="1190.7715" y1="389.0381" y2="420.2881"/><polygon fill="#181818" points="1184.5215,404.6631,1190.7715,420.2881,1197.0215,404.6631,1190.7715,410.9131" style="stroke:#181818;stroke-width:1.5625;"/><rect fill="#DDDDDD" height="180.7129" id="_legend" rx="11.7188" ry="11.7188" style="stroke:#000000;stroke-width:1.5625;" width="660.9375" x="1150.1465" y="1371.167"/><text fill="#000000" font-family="sans-serif" font-size="21.875" lengthAdjust="spacing" textLength="487.5" x="1157.959" y="1401.6876">Este flujo aplica solo a profesionales de atenci&#243;n.</text><text fill="#000000" font-family="sans-serif" font-size="21.875" lengthAdjust="spacing" textLength="75" x="1157.959" y="1429.2023">Reglas:</text><text fill="#000000" font-family="sans-serif" font-size="21.875" lengthAdjust="spacing" textLength="432.8125" x="1157.959" y="1456.7169">- Validaci&#243;n de rol antes de mostrar agenda</text><text fill="#000000" font-family="sans-serif" font-size="21.875" lengthAdjust="spacing" textLength="460.9375" x="1157.959" y="1484.2316">- Las citas se asumen ATENDIDAS por defecto</text><text fill="#000000" font-family="sans-serif" font-size="21.875" lengthAdjust="spacing" textLength="645.3125" x="1157.959" y="1511.7462">- Solo se marcan como NO ATENDIDAS o CANCELADAS si aplica</text><text fill="#000000" font-family="sans-serif" font-size="21.875" lengthAdjust="spacing" textLength="609.375" x="1157.959" y="1539.2609">- No se accede a historia cl&#237;nica ni se registran observaciones</text><!--SRC=[TLJBRbCn4DtxAqPYaouAbAfIIKgha8T0QaD5e2isqtidYLjVJsGxbLh4nx1aqHKVW4H-ZB5zRvCq8QiRpvapZtDiVwlj71rMKCur71ozLlxf18kWxtIuX-yAu3qMjrF72rlssB235yFqIn5N7nqU7myEUtBKrrYnBRTo1iV3ey7RDG2xahQoTvt-K2heO4ZrPXYkEK2FhL-Om4upN2n_bRfWs8UXMTmmnFRXql64l6QB1ag2RY1RwELlgqucR0Du_K3l3jwSNg7H9QP8X3asS0zJyY6TU5tD3SK0JicMUF8g9fyg-ORSZ_81NL3jhtw1iHTjTQ4H2hPtv7mcxgZsc8sS2nHqIJReYIwUObVaqd-NgfTaO979Eahf2RJ-_Xbuc6-EWyquPtiGPcIXDLu-xido8blTRCJ5cZvnbij754A0JFa1x-kWC4z5RYpHFoSJkZ4PAefOroLyecX8-kH9PaLRa96umGJPPX6UppJLFhZ8ak7rz7NuN5zJ39AVIuH1qlCG6K764xH6tD3byfS2bMKIM0RqEccsgxZmNw0hwWb4cufXz0cwNmQZ_iT-jxE2hRgiMCpFq6geuxfnhu4-xqTIHmmpBEBoY-mc54yclJhVR6jCqH9Un1ThDeLXBWulQK95u1MrBVL4hRwo35cmQldJPzNEEayon46tPvvoOCZUtDLmUwYbC_qWazwmizWi6YI7vvlbDtFpe3lC0pE-poJ_8w-fQ-9rMbbygPsUQbcVWKcwnGKx9tQGPoABt98B1HmSGwan5KqxIwGrfQ7e6H2YML034QscmhdSFWGlJmhW-bKYlt6PNYenW47VLlkmus50QICbL9nDaYqgu7EiTG6P2VsY4ZKQbSVhCWjs7BiGM1KjQRVSE0Q6NdVK6vntun-lw-ubSvJon5yKcuQPs5BUFp6qMJxQEA3L4U1g4rlWQq_kBbueIpukAIz8_GC0]--></g></svg>